<?xml version="1.0" encoding="utf-8"?>
<!-- Generator: Adobe Illustrator 17.1.0, SVG Export Plug-In . SVG Version: 6.00 Build 0)  -->
<!DOCTYPE svg PUBLIC "-//W3C//DTD SVG 1.1//EN" "http://www.w3.org/Graphics/SVG/1.1/DTD/svg11.dtd">
<svg version="1.1" id="Forma_1_1_" xmlns="http://www.w3.org/2000/svg" xmlns:xlink="http://www.w3.org/1999/xlink" x="0px" y="0px"
	 viewBox="0 181 612 611" enable-background="new 0 181 612 611" xml:space="preserve">
<g id="Forma_1">
	<g>
		<path fill="#FFFFFF" d="M557.4,650.8h-13.8c-8.6,0-15.5,6.9-15.5,15.5v44.8h-25.8L411,437.3c44.8-24.1,80.9-63.7,99.9-111.9h39.6
			c10.3,0,18.9-8.6,18.9-18.9s-8.6-18.9-18.9-18.9h-27.5c3.4-13.8,5.2-25.8,5.2-39.6H83.9c0,13.8,1.7,25.8,5.2,39.6H61.5
			c-10.3,0-18.9,8.6-18.9,18.9s8.6,18.9,18.9,18.9h39.6c20.7,48.2,55.1,87.8,99.9,111.9l-89.5,273.8H85.6v-44.8
			c0-8.6-6.9-15.5-15.5-15.5H54.6c-8.6,0-15.5,6.9-15.5,15.5v108.5c0,8.6,6.9,17.2,15.5,17.2h13.8c8.6,0,15.5-6.9,15.5-17.2V730
			h18.9l-1.7,3.4c-3.4,10.3,1.7,22.4,12.1,25.8c1.7,0,3.4,1.7,6.9,1.7c8.6,0,15.5-5.2,18.9-13.8l5.2-15.5h320.2l5.2,15.5
			c3.4,8.6,10.3,13.8,18.9,13.8c1.7,0,3.4,0,6.9-1.7c10.3-3.4,15.5-15.5,12.1-25.8l-1.7-3.4h18.9v44.8c0,8.6,6.9,17.2,15.5,17.2
			h13.8c8.6,0,15.5-6.9,15.5-17.2V666.3C572.9,657.7,566,650.8,557.4,650.8z M152.8,711.1L152.8,711.1l86.1-256.5
			c15.5,5.2,32.7,8.6,48.2,10.3v187.7c0,10.3,8.6,18.9,20.7,18.9c10.3,0,20.7-8.6,20.7-18.9V464.9c17.2-1.7,32.7-5.2,48.2-10.3
			l86.1,256.5H152.8z M235.4,146.3 M180.3,93"/>
	</g>
</g>
</svg>
