<?xml version="1.0" encoding="utf-8"?>
<!-- Generator: Adobe Illustrator 17.1.0, SVG Export Plug-In . SVG Version: 6.00 Build 0)  -->
<!DOCTYPE svg PUBLIC "-//W3C//DTD SVG 1.1//EN" "http://www.w3.org/Graphics/SVG/1.1/DTD/svg11.dtd">
<svg version="1.1" id="Forma_1_1_" xmlns="http://www.w3.org/2000/svg" xmlns:xlink="http://www.w3.org/1999/xlink" x="0px" y="0px"
	 viewBox="0 0 278 226" enable-background="new 0 0 278 226" xml:space="preserve">
<g id="Forma_1">
	<g>
		<path fill="#FFFFFF" d="M220.2,28.1c-0.6-5-4.8-8.8-9.9-8.8H10c-5.5,0-10,4.5-10,10v115.9c0,23,12.9,43.6,33.6,53.8v0
			c-1,2.4-1.5,4.9-1.5,7.5c0,10.7,8.7,19.5,19.5,19.5h117.1c10.8,0,19.5-8.7,19.5-19.5c0-2.6-0.5-5.1-1.5-7.5
			c17.7-8.7,29.7-25,32.8-44c17.1-3.8,31.6-13.6,42.5-28.9c10.1-14.2,13.5-28.2,13.8-29.8l0.1-0.3c4.1-20.2,1.1-36.6-8.7-48.6
			C257.3,35.3,241,28.7,220.2,28.1z M246.5,89.8c-0.3,1-2.7,10.1-9,18.9c-4.9,6.8-10.6,11.7-17.3,14.7V58.1
			c7.5,0.3,18.5,1.8,23.7,8.2C247.8,71.1,248.7,79,246.5,89.8z"/>
	</g>
</g>
</svg>
