<?xml version="1.0" encoding="utf-8"?>
<!-- Generator: Adobe Illustrator 17.1.0, SVG Export Plug-In . SVG Version: 6.00 Build 0)  -->
<!DOCTYPE svg PUBLIC "-//W3C//DTD SVG 1.1//EN" "http://www.w3.org/Graphics/SVG/1.1/DTD/svg11.dtd">
<svg version="1.1" id="Forma_1_1_" xmlns="http://www.w3.org/2000/svg" xmlns:xlink="http://www.w3.org/1999/xlink" x="0px" y="0px"
	 viewBox="0 0 436 486" enable-background="new 0 0 436 486" xml:space="preserve">
<g id="Forma_1">
	<g>
		<path fill="#FFFFFF" d="M381,169c14.9-14.6,24.2-35,24.2-57.6c0-4.2-0.3-8.4-1-12.4L355,113.1l-6.9,8L381,169z M337,31.8v57.3
			h11.6l48-13.8C385.2,52.5,363.2,35.8,337,31.8z M286.6,182.5c11.3,6.1,24.2,9.5,38,9.5c13,0,25.3-3.1,36.1-8.6L330.2,139
			L286.6,182.5z M312.2,31.8c-25,3.9-46.1,19.2-58,40.4l50.3,16.8h7.6V31.8z M403.4,32.6c-21-21-49-32.6-78.8-32.6
			c-29.8,0-57.7,11.6-78.8,32.6c-15.7,15.7-26.1,35.2-30.4,56.4h20.4c10-39.7,46-69.2,88.7-69.2c50.5,0,91.5,41.1,91.5,91.5
			c0,50.5-41,91.5-91.5,91.5c-16.8,0-32.5-4.5-46-12.4L264.1,205c17.9,11.6,38.7,17.8,60.5,17.8c29.8,0,57.7-11.6,78.8-32.6
			c21-21,32.6-49,32.6-78.8C436,81.7,424.4,53.7,403.4,32.6z M184.8,454.6V258.3l145.6-145.6v-10.8H0v10.8l145.6,145.6v196.2H92.1
			L80.5,486h169.3l-11.5-31.4H184.8z M115.5,89.1L44.9,18.4L30.7,32.6l56.4,56.5H115.5z"/>
	</g>
</g>
</svg>
