<?xml version="1.0" encoding="utf-8"?>
<!-- Generator: Adobe Illustrator 17.1.0, SVG Export Plug-In . SVG Version: 6.00 Build 0)  -->
<!DOCTYPE svg PUBLIC "-//W3C//DTD SVG 1.1//EN" "http://www.w3.org/Graphics/SVG/1.1/DTD/svg11.dtd">
<svg version="1.1" id="Forma_1_1_" xmlns="http://www.w3.org/2000/svg" xmlns:xlink="http://www.w3.org/1999/xlink" x="0px" y="0px"
	 viewBox="0 0 484 383" enable-background="new 0 0 484 383" xml:space="preserve">
<g id="Forma_1">
	<g>
		<path fill="#FFFFFF" d="M390.8,69.1L484,15.2L477.2,0L359.8,38.9L337,91.8H173.8v40.7h23.5l32,249.2h161.5l32-249.2h23.5V91.8H381
			L390.8,69.1z M187.3,258.1h-168L0,277.4v0.5l19.3,19.3h173L187.3,258.1z M176.2,172.3H85.3c-32.7,0-59.2,26.5-59.2,59.2v7h158.6
			L176.2,172.3z M26.1,316.7v7c0,32.7,26.5,59.3,59.2,59.3h101c5.8,0,11.4-0.8,16.7-2.4l-8.2-63.9H26.1z"/>
	</g>
</g>
</svg>
