<?xml version="1.0" encoding="utf-8"?>
<!-- Generator: Adobe Illustrator 17.1.0, SVG Export Plug-In . SVG Version: 6.00 Build 0)  -->
<!DOCTYPE svg PUBLIC "-//W3C//DTD SVG 1.1//EN" "http://www.w3.org/Graphics/SVG/1.1/DTD/svg11.dtd">
<svg version="1.1" id="Forma_1_1_" xmlns="http://www.w3.org/2000/svg" xmlns:xlink="http://www.w3.org/1999/xlink" x="0px" y="0px"
	 viewBox="0 0 29 29.6" enable-background="new 0 0 29 29.6" xml:space="preserve">
<g id="Forma_1">
	<g>
		<path fill="#FFFFFF" d="M21.6,6.6c1.1,0,2-0.9,2-2V2.5c0-1.1-0.9-2-2-2s-2,0.9-2,2v2.1C19.6,5.7,20.5,6.6,21.6,6.6z M28.8,3.9
			h-4.1v1c0,1.7-1.4,3.1-3.1,3.1C20,8,18.6,6.7,18.6,5v-1h-8.2v1C10.4,6.7,9,8,7.3,8C5.6,8,4.3,6.7,4.3,5v-1L0.1,3.9v25.7h2.1h24.6
			l2,0L28.8,3.9z M26.8,27.5H2.2V11.1h24.6V27.5z M7.3,6.6c1.1,0,2-0.9,2-2V2.5c0-1.1-0.9-2-2-2s-2,0.9-2,2v2.1
			C5.3,5.7,6.2,6.6,7.3,6.6z M13.6,13.3h-3.2v2.9h3.2V13.3z M18.9,13.3h-3.2v2.9h3.2V13.3z M23.7,13.3h-3.2v2.9h3.2V13.3z M13.6,18
			h-3.2v2.8h3.2V18z M18.9,18h-3.2v2.8h3.2V18z M23.7,18h-3.2v2.8h3.2V18z M13.6,22.9h-3.2v2.8h3.2V22.9z M8.5,18H5.3v2.8h3.2V18z
			 M8.5,22.9H5.3v2.8h3.2V22.9z M18.9,22.9h-3.2v2.8h3.2V22.9z M23.7,22.9h-3.2v2.8h3.2V22.9z"/>
	</g>
</g>
</svg>
