<?xml version="1.0" encoding="utf-8"?>
<!-- Generator: Adobe Illustrator 17.1.0, SVG Export Plug-In . SVG Version: 6.00 Build 0)  -->
<!DOCTYPE svg PUBLIC "-//W3C//DTD SVG 1.1//EN" "http://www.w3.org/Graphics/SVG/1.1/DTD/svg11.dtd">
<svg version="1.1" id="Forma_1_1_" xmlns="http://www.w3.org/2000/svg" xmlns:xlink="http://www.w3.org/1999/xlink" x="0px" y="0px"
	 viewBox="0 168 612 611" enable-background="new 0 168 612 611" xml:space="preserve">
<path fill="#FFFFFF" d="M35.5,168L0,203.4l184.2,183.9c11-13,20.6-27.1,28.9-41.9L35.5,168z"/>
<path fill="#FFFFFF" d="M612,203.4L576.5,168L317.3,426.9c1.5,6.4,3.1,12.8,4.7,19.6c1,7,4,16,0,24c-3,4,0,14-2,14
	c-18.3,5.5-40.7,5.9-58.9-1.6L0,743.6L35.5,779L306,508.9L576.5,779l35.5-35.4L341.5,473.5L612,203.4z"/>
<g id="Forma_1">
	<g>
		<path fill="#FFFFFF" d="M306,282.3c-133.5,0-249.1,77.7-306,191.3c56.9,113.6,172.5,191.3,306,191.3s249.1-77.7,306-191.3
			C555.1,359.9,439.5,282.3,306,282.3z M248.6,355.2c31.7,0,57.4,25.7,57.4,57.4s-25.7,57.4-57.4,57.4s-57.4-25.7-57.4-57.4
			S216.9,355.2,248.6,355.2z M456.8,563.3c-45.2,28.8-97.3,44.1-150.8,44.1s-105.7-15.2-150.8-44.1c-36-23-66.5-53.7-89.3-89.8
			c22.8-36.2,53.3-66.9,89.3-89.8c2.4-1.6,4.7-3,7.1-4.4c-6,16.4-9.2,33.9-9.2,52.4c0,84.5,68.5,153,153,153s153-68.5,153-153
			c0-18.4-3.2-36-9.2-52.4c2.4,1.4,4.8,2.9,7.1,4.4c36,22.9,66.5,53.7,89.3,89.8C523.3,509.7,492.8,540.4,456.8,563.3z"/>
	</g>
</g>
</svg>
