<?xml version="1.0" encoding="utf-8"?>
<!-- Generator: Adobe Illustrator 17.1.0, SVG Export Plug-In . SVG Version: 6.00 Build 0)  -->
<!DOCTYPE svg PUBLIC "-//W3C//DTD SVG 1.1//EN" "http://www.w3.org/Graphics/SVG/1.1/DTD/svg11.dtd">
<svg version="1.1" id="Forma_1_1_" xmlns="http://www.w3.org/2000/svg" xmlns:xlink="http://www.w3.org/1999/xlink" x="0px" y="0px"
	 viewBox="0 0 32 33" enable-background="new 0 0 32 33" xml:space="preserve">
<rect x="-3.1" y="-2" display="none" fill="#C61E1E" width="40.2" height="39.8"/>
<g id="Forma_1">
	<g>
		<path fill="#FFFFFF" d="M32,10.6l-7.4-0.1H2.2L0,10.6V4.8c0-1.9,1.5-3.5,3.4-3.5h0.4C4,0.5,4.6,0,5.4,0C6.1,0,6.8,0.5,7,1.3h2.1
			C9.3,0.5,9.9,0,10.7,0c0.8,0,1.4,0.5,1.6,1.3h2.1C14.6,0.5,15.2,0,16,0c0.8,0,1.4,0.5,1.6,1.3h2.1C19.9,0.5,20.5,0,21.3,0
			s1.4,0.5,1.6,1.3H25C25.2,0.5,25.9,0,26.6,0c0.8,0,1.4,0.5,1.6,1.3h0.4c1.9,0,3.4,1.6,3.4,3.5V10.6z M24.6,9l5.9,0.1V4.8
			c0-1.1-0.9-2-1.9-2h-2.1l0,0l-0.8,0h-4.6l0-0.1l-0.8,0.1h-4.6l0,0l-0.8,0h-4.6l0-0.1L9.8,2.8H5.2l0,0l-0.8,0H3.4
			c-1.1,0-1.9,0.9-1.9,2V9l0.7,0L24.6,9z M10.7,1.5c-0.1,0-0.2,0.1-0.2,0.2l0.2,0.7l0.2-0.7C10.9,1.6,10.8,1.5,10.7,1.5z M26.6,1.5
			c-0.1,0-0.2,0.1-0.2,0.2l0.2,0.6l0.2-0.6C26.8,1.6,26.7,1.5,26.6,1.5z M21.3,1.5c-0.1,0-0.2,0.1-0.2,0.2l0.2,0.6l0.2-0.6
			C21.5,1.6,21.4,1.5,21.3,1.5z M16,1.5c-0.1,0-0.2,0.1-0.2,0.2L16,2.3l0.2-0.6C16.2,1.6,16.1,1.5,16,1.5z M5.4,1.5
			c-0.1,0-0.2,0.1-0.2,0.2l0.2,0.6l0.2-0.6C5.6,1.6,5.5,1.5,5.4,1.5z"/>
	</g>
</g>
<g>
	<g>
		<path fill="#FFFFFF" d="M26.5,18.1c-0.5,0-0.9,0.2-1.2,0.6s-0.5,0.8-0.6,1.4l0,0h3.4v-0.2c0-0.5-0.1-1-0.4-1.3S27,18.1,26.5,18.1z
			 M15.4,18.1c-0.7,0-1.2,0.3-1.5,0.8c-0.3,0.5-0.5,1.2-0.5,2V21c0,0.8,0.2,1.5,0.5,2c0.3,0.5,0.8,0.8,1.5,0.8
			c0.7,0,1.2-0.3,1.5-0.8c0.3-0.5,0.5-1.2,0.5-2v-0.2c0-0.8-0.2-1.5-0.5-2C16.6,18.4,16.1,18.1,15.4,18.1z M0,8.9v21.3
			C0,31.8,1.3,33,2.8,33H26l5.9-5.9V8.9H0z M20.1,13H22v1.7h-1.9V13z M10.6,25.2H8.7v-4.9H3.7v4.9H1.8V13.8h1.9v5h5.1v-5h1.9V25.2z
			 M15.4,25.4c-1.2,0-2.2-0.4-2.9-1.2c-0.7-0.8-1-1.8-1-3.1v-0.2c0-1.3,0.3-2.3,1-3.1c0.7-0.8,1.6-1.2,2.8-1.2
			c1.2,0,2.2,0.4,2.9,1.2c0.7,0.8,1,1.8,1,3.1V21c0,1.3-0.3,2.3-1,3.1C17.6,25,16.6,25.4,15.4,25.4z M22.1,25.7
			c0,0.9-0.2,1.7-0.7,2.2s-1.2,0.8-2,0.8c-0.2,0-0.4,0-0.5,0s-0.3-0.1-0.5-0.1l0.1-1.5c0.1,0,0.2,0,0.3,0.1s0.3,0,0.4,0
			c0.3,0,0.6-0.1,0.8-0.3s0.3-0.6,0.3-1v-8.9h1.9V25.7z M30,21.5h-5.3l0,0c0,0.7,0.2,1.2,0.6,1.6s0.9,0.6,1.5,0.6
			c0.5,0,0.9-0.1,1.3-0.2s0.7-0.3,1.1-0.5l0.6,1.2c-0.3,0.3-0.7,0.5-1.3,0.7c-0.5,0.2-1.1,0.3-1.8,0.3c-1.2,0-2.2-0.4-2.9-1.2
			s-1.1-1.8-1.1-3v-0.3c0-1.2,0.4-2.2,1.1-3.1s1.6-1.2,2.7-1.2c1.1,0,2,0.3,2.6,1c0.6,0.7,0.9,1.6,0.9,2.8V21.5z"/>
	</g>
</g>
</svg>
