<?xml version="1.0" encoding="utf-8"?>
<!-- Generator: Adobe Illustrator 17.1.0, SVG Export Plug-In . SVG Version: 6.00 Build 0)  -->
<!DOCTYPE svg PUBLIC "-//W3C//DTD SVG 1.1//EN" "http://www.w3.org/Graphics/SVG/1.1/DTD/svg11.dtd">
<svg version="1.1" id="Forma_1_1_" xmlns="http://www.w3.org/2000/svg" xmlns:xlink="http://www.w3.org/1999/xlink" x="0px" y="0px"
	 viewBox="0 0 32 33" enable-background="new 0 0 32 33" xml:space="preserve">
<g id="Forma_1">
	<g>
		<path fill="#FFFFFF" d="M29.2,1.3h-1.1c0-0.1,0.1-0.2,0.1-0.3c0-0.5-0.4-1-1-1c-0.5,0-1,0.4-1,1c0,0.1,0,0.2,0.1,0.3h-3.7
			c0-0.1,0.1-0.2,0.1-0.3c0-0.5-0.4-1-1-1c-0.5,0-1,0.4-1,1c0,0.1,0,0.2,0.1,0.3h-3.7C16.9,1.2,17,1.1,17,1c0-0.5-0.4-1-1-1
			c-0.5,0-1,0.4-1,1c0,0.1,0,0.2,0.1,0.3h-3.7c0-0.1,0.1-0.2,0.1-0.3c0-0.5-0.4-1-1-1c-0.5,0-1,0.4-1,1c0,0.1,0,0.2,0.1,0.3H5.8
			c0-0.1,0.1-0.2,0.1-0.3c0-0.5-0.4-1-1-1c-0.5,0-1,0.4-1,1c0,0.1,0,0.2,0.1,0.3H2.8C1.3,1.3,0,2.5,0,4v26.2C0,31.8,1.3,33,2.8,33
			H26l5.9-5.9V4C32,2.5,30.7,1.3,29.2,1.3z M30.5,26.5l-0.3,0.3h-2.4c-1.1,0-2,0.9-2,2v2.4l-0.3,0.3H2.8c-0.7,0-1.3-0.6-1.3-1.3V9.1
			h28.9V26.5z"/>
	</g>
</g>
<g>
	<path fill="#FFFFFF" d="M9.5,21.2c0-0.4-0.2-0.8-0.5-1.1c-0.3-0.3-0.9-0.5-1.6-0.8C6.1,19,5,18.6,4.3,18c-0.7-0.5-1-1.3-1-2.2
		c0-0.9,0.4-1.7,1.2-2.3c0.8-0.6,1.8-0.9,3-0.9c1.3,0,2.3,0.3,3.1,1c0.8,0.7,1.2,1.5,1.1,2.5l0,0H9.5c0-0.5-0.2-1-0.5-1.3
		c-0.4-0.3-0.8-0.5-1.5-0.5c-0.6,0-1.1,0.1-1.4,0.4c-0.3,0.3-0.5,0.6-0.5,1c0,0.4,0.2,0.7,0.5,0.9c0.4,0.2,1,0.5,1.8,0.8
		c1.3,0.3,2.2,0.8,2.9,1.4c0.6,0.6,1,1.3,1,2.3c0,1-0.4,1.7-1.2,2.3c-0.8,0.6-1.8,0.8-3,0.8c-1.2,0-2.3-0.3-3.2-1S3,21.9,3,20.7l0,0
		h2.2c0,0.7,0.2,1.2,0.6,1.5s1,0.5,1.7,0.5c0.6,0,1.1-0.1,1.4-0.4S9.5,21.6,9.5,21.2z"/>
	<path fill="#FFFFFF" d="M17.1,24.4c-1.2,0-2.2-0.4-2.9-1.2s-1.1-1.8-1.1-3v-0.3c0-1.3,0.3-2.3,1-3.1s1.6-1.2,2.8-1.2
		c1.1,0,2,0.3,2.7,1s0.9,1.6,0.9,2.8v1.2h-5l0,0c0,0.6,0.2,1,0.6,1.4c0.3,0.4,0.8,0.5,1.3,0.5c0.5,0,0.9-0.1,1.3-0.2
		s0.7-0.3,1.1-0.5l0.6,1.4c-0.3,0.3-0.8,0.5-1.4,0.7S17.8,24.4,17.1,24.4z M16.9,17.3c-0.4,0-0.8,0.2-1,0.5s-0.4,0.7-0.5,1.3l0,0
		h2.8v-0.2c0-0.5-0.1-0.9-0.3-1.2S17.3,17.3,16.9,17.3z"/>
	<path fill="#FFFFFF" d="M25,18.4L25,18.4l1.3-2.7h2.6l-2.5,4.2l2.6,4.3h-2.6L25,21.4l-1.4,2.8h-2.6l2.6-4.3l-2.6-4.2h2.6L25,18.4z"
		/>
</g>
</svg>
