<?xml version="1.0" encoding="utf-8"?>
<!-- Generator: Adobe Illustrator 17.1.0, SVG Export Plug-In . SVG Version: 6.00 Build 0)  -->
<!DOCTYPE svg PUBLIC "-//W3C//DTD SVG 1.1//EN" "http://www.w3.org/Graphics/SVG/1.1/DTD/svg11.dtd">
<svg version="1.1" id="Forma_1_1_" xmlns="http://www.w3.org/2000/svg" xmlns:xlink="http://www.w3.org/1999/xlink" x="0px" y="0px"
	 viewBox="0 0 32 33" enable-background="new 0 0 32 33" xml:space="preserve">
<g id="Forma_1">
	<g>
		<path fill="#FFFFFF" d="M29.2,1.3h-1.1c0-0.1,0.1-0.2,0.1-0.3c0-0.5-0.4-1-1-1c-0.5,0-1,0.4-1,1c0,0.1,0,0.2,0.1,0.3h-3.7
			c0-0.1,0.1-0.2,0.1-0.3c0-0.5-0.4-1-1-1c-0.5,0-1,0.4-1,1c0,0.1,0,0.2,0.1,0.3h-3.7C16.9,1.2,17,1.1,17,1c0-0.5-0.4-1-1-1
			c-0.5,0-1,0.4-1,1c0,0.1,0,0.2,0.1,0.3h-3.7c0-0.1,0.1-0.2,0.1-0.3c0-0.5-0.4-1-1-1c-0.5,0-1,0.4-1,1c0,0.1,0,0.2,0.1,0.3H5.8
			c0-0.1,0.1-0.2,0.1-0.3c0-0.5-0.4-1-1-1c-0.5,0-1,0.4-1,1c0,0.1,0,0.2,0.1,0.3H2.8C1.3,1.3,0,2.5,0,4v26.2C0,31.8,1.3,33,2.8,33
			H26l5.9-5.9V4C32,2.5,30.7,1.3,29.2,1.3z M30.5,26.5l-0.3,0.3h-2.4c-1.1,0-2,0.9-2,2v2.4l-0.3,0.3H2.8c-0.7,0-1.3-0.6-1.3-1.3V9.1
			h28.9V26.5z"/>
	</g>
</g>
<g>
	<path fill="#FFFFFF" d="M14.1,19c0,0.7-0.1,1.3-0.3,1.9c-0.2,0.6-0.5,1.1-1,1.5l1.9,1.8l-1.5,1.2l-2-2c-0.3,0.1-0.6,0.2-0.9,0.2
		c-0.3,0.1-0.6,0.1-0.9,0.1c-1.4,0-2.5-0.5-3.4-1.4S4.6,20.4,4.6,19v-2c0-1.4,0.4-2.5,1.3-3.5c0.9-0.9,2-1.4,3.4-1.4
		c1.4,0,2.6,0.5,3.4,1.4c0.9,0.9,1.3,2.1,1.3,3.5V19z M11.8,17c0-0.9-0.2-1.6-0.7-2.2c-0.4-0.6-1.1-0.9-1.8-0.9
		c-0.8,0-1.4,0.3-1.8,0.8c-0.4,0.6-0.6,1.3-0.6,2.2V19c0,0.9,0.2,1.6,0.6,2.2c0.4,0.6,1,0.9,1.8,0.9c0.8,0,1.4-0.3,1.8-0.9
		c0.4-0.6,0.7-1.3,0.7-2.2V17z"/>
	<path fill="#FFFFFF" d="M21.1,22.5c-0.3,0.4-0.6,0.8-1,1s-0.9,0.4-1.4,0.4c-0.9,0-1.6-0.3-2.1-0.9s-0.8-1.5-0.8-2.7v-5.1h2.3v5.1
		c0,0.6,0.1,1.1,0.3,1.3s0.5,0.4,0.9,0.4c0.4,0,0.7-0.1,0.9-0.2c0.3-0.1,0.5-0.3,0.6-0.5v-6.2h2.3v8.5h-1.9L21.1,22.5z"/>
	<path fill="#FFFFFF" d="M27.4,13.2h-2.3v-1.7h2.3V13.2z M27.4,23.7h-2.3v-8.5h2.3V23.7z"/>
</g>
</svg>
