<?xml version="1.0" encoding="utf-8"?>
<!-- Generator: Adobe Illustrator 17.1.0, SVG Export Plug-In . SVG Version: 6.00 Build 0)  -->
<!DOCTYPE svg PUBLIC "-//W3C//DTD SVG 1.1//EN" "http://www.w3.org/Graphics/SVG/1.1/DTD/svg11.dtd">
<svg version="1.1" id="Forma_1_1_" xmlns="http://www.w3.org/2000/svg" xmlns:xlink="http://www.w3.org/1999/xlink" x="0px" y="0px"
	 viewBox="0 0 32 33" enable-background="new 0 0 32 33" xml:space="preserve">
<g id="Forma_1">
	<g>
		<path fill="#FFFFFF" d="M29.2,1.3h-1.1c0-0.1,0.1-0.2,0.1-0.3c0-0.5-0.4-1-1-1c-0.5,0-1,0.4-1,1c0,0.1,0,0.2,0.1,0.3h-3.7
			c0-0.1,0.1-0.2,0.1-0.3c0-0.5-0.4-1-1-1c-0.5,0-1,0.4-1,1c0,0.1,0,0.2,0.1,0.3h-3.7C16.9,1.2,17,1.1,17,1c0-0.5-0.4-1-1-1
			c-0.5,0-1,0.4-1,1c0,0.1,0,0.2,0.1,0.3h-3.7c0-0.1,0.1-0.2,0.1-0.3c0-0.5-0.4-1-1-1c-0.5,0-1,0.4-1,1c0,0.1,0,0.2,0.1,0.3H5.8
			c0-0.1,0.1-0.2,0.1-0.3c0-0.5-0.4-1-1-1c-0.5,0-1,0.4-1,1c0,0.1,0,0.2,0.1,0.3H2.8C1.3,1.3,0,2.5,0,4v26.2C0,31.8,1.3,33,2.8,33
			H26l5.9-5.9V4C32,2.5,30.7,1.3,29.2,1.3z M30.5,26.5l-0.3,0.3h-2.4c-1.1,0-2,0.9-2,2v2.4l-0.3,0.3H2.8c-0.7,0-1.3-0.6-1.3-1.3V9.1
			h28.9V26.5z"/>
	</g>
</g>
<g>
	<path fill="#FFFFFF" d="M2.5,23.3v-9.7h3.3c1.2,0,2.2,0.4,2.9,1.1c0.8,0.8,1.2,1.7,1.2,2.9v1.6c0,1.2-0.4,2.2-1.2,2.9
		c-0.8,0.8-1.8,1.1-2.9,1.1H2.5z M4.5,15.1v6.7h1.3c0.7,0,1.2-0.2,1.6-0.7C7.8,20.6,8,20,8,19.2v-1.6c0-0.8-0.2-1.4-0.6-1.8
		c-0.4-0.5-0.9-0.7-1.6-0.7H4.5z"/>
	<path fill="#FFFFFF" d="M11.1,19.6c0-1.1,0.3-2,0.9-2.7s1.4-1,2.5-1c1.1,0,1.9,0.3,2.5,1s0.9,1.6,0.9,2.7v0.1c0,1.1-0.3,2-0.9,2.7
		c-0.6,0.7-1.4,1-2.5,1c-1.1,0-1.9-0.3-2.5-1c-0.6-0.7-0.9-1.6-0.9-2.7V19.6z M13,19.8c0,0.7,0.1,1.2,0.3,1.6
		c0.2,0.4,0.6,0.6,1.1,0.6c0.5,0,0.9-0.2,1.1-0.6s0.4-0.9,0.4-1.6v-0.1c0-0.6-0.1-1.2-0.4-1.6c-0.2-0.4-0.6-0.6-1.1-0.6
		c-0.5,0-0.9,0.2-1.1,0.6C13.1,18.5,13,19,13,19.6V19.8z"/>
	<path fill="#FFFFFF" d="M20.9,16.1l0.1,1c0.2-0.3,0.5-0.6,0.9-0.8c0.4-0.2,0.8-0.3,1.2-0.3c0.5,0,0.9,0.1,1.2,0.3
		c0.3,0.2,0.6,0.5,0.7,0.9c0.2-0.4,0.5-0.7,0.9-0.9c0.4-0.2,0.8-0.3,1.3-0.3c0.7,0,1.3,0.2,1.7,0.7c0.4,0.5,0.6,1.2,0.6,2.3v4.4h-2
		v-4.4c0-0.6-0.1-0.9-0.3-1.1c-0.2-0.2-0.4-0.3-0.8-0.3c-0.3,0-0.5,0.1-0.7,0.2c-0.2,0.1-0.4,0.3-0.5,0.5c0,0.1,0,0.2,0,0.2
		c0,0.1,0,0.1,0,0.2v4.8h-1.9v-4.4c0-0.5-0.1-0.9-0.3-1.1c-0.2-0.2-0.4-0.3-0.8-0.3c-0.3,0-0.5,0.1-0.7,0.2
		c-0.2,0.1-0.4,0.2-0.5,0.4v5.3h-1.9v-7.2H20.9z"/>
</g>
</svg>
