<?xml version="1.0" encoding="utf-8"?>
<!-- Generator: Adobe Illustrator 17.1.0, SVG Export Plug-In . SVG Version: 6.00 Build 0)  -->
<!DOCTYPE svg PUBLIC "-//W3C//DTD SVG 1.1//EN" "http://www.w3.org/Graphics/SVG/1.1/DTD/svg11.dtd">
<svg version="1.1" id="Forma_1_1_" xmlns="http://www.w3.org/2000/svg" xmlns:xlink="http://www.w3.org/1999/xlink" x="0px" y="0px"
	 viewBox="0 0 32 33" enable-background="new 0 0 32 33" xml:space="preserve">
<g id="Forma_1">
	<g>
		<path fill="#FFFFFF" d="M29.2,1.3h-1.1c0-0.1,0.1-0.2,0.1-0.3c0-0.5-0.4-1-1-1c-0.5,0-1,0.4-1,1c0,0.1,0,0.2,0.1,0.3h-3.7
			c0-0.1,0.1-0.2,0.1-0.3c0-0.5-0.4-1-1-1c-0.5,0-1,0.4-1,1c0,0.1,0,0.2,0.1,0.3h-3.7C16.9,1.2,17,1.1,17,1c0-0.5-0.4-1-1-1
			c-0.5,0-1,0.4-1,1c0,0.1,0,0.2,0.1,0.3h-3.7c0-0.1,0.1-0.2,0.1-0.3c0-0.5-0.4-1-1-1c-0.5,0-1,0.4-1,1c0,0.1,0,0.2,0.1,0.3H5.8
			c0-0.1,0.1-0.2,0.1-0.3c0-0.5-0.4-1-1-1c-0.5,0-1,0.4-1,1c0,0.1,0,0.2,0.1,0.3H2.8C1.3,1.3,0,2.5,0,4v26.2C0,31.8,1.3,33,2.8,33
			H26l5.9-5.9V4C32,2.5,30.7,1.3,29.2,1.3z M30.5,26.5l-0.3,0.3h-2.4c-1.1,0-2,0.9-2,2v2.4l-0.3,0.3H2.8c-0.7,0-1.3-0.6-1.3-1.3V9.1
			h28.9V26.5z"/>
	</g>
</g>
<g>
	<path fill="#FFFFFF" d="M9.5,19.6c0-0.4-0.2-0.8-0.5-1.1c-0.3-0.3-0.9-0.5-1.6-0.8C6,17.4,5,16.9,4.3,16.4c-0.7-0.5-1-1.3-1-2.2
		c0-0.9,0.4-1.7,1.2-2.3c0.8-0.6,1.8-0.9,3-0.9c1.3,0,2.3,0.3,3.1,1c0.8,0.7,1.2,1.5,1.1,2.5l0,0H9.5c0-0.5-0.2-1-0.5-1.3
		c-0.4-0.3-0.8-0.5-1.5-0.5c-0.6,0-1.1,0.1-1.4,0.4c-0.3,0.3-0.5,0.6-0.5,1c0,0.4,0.2,0.7,0.5,0.9c0.4,0.2,1,0.5,1.8,0.8
		c1.3,0.3,2.2,0.8,2.9,1.4c0.6,0.6,1,1.3,1,2.3c0,1-0.4,1.7-1.2,2.3c-0.8,0.6-1.8,0.8-3,0.8c-1.2,0-2.3-0.3-3.2-1S2.9,20.2,3,19.1
		l0,0h2.2c0,0.7,0.2,1.2,0.6,1.5s1,0.5,1.7,0.5c0.6,0,1.1-0.1,1.4-0.4S9.5,20,9.5,19.6z"/>
	<path fill="#FFFFFF" d="M17,22.7c-1.2,0-2.2-0.4-2.9-1.2s-1.1-1.8-1.1-3v-0.3c0-1.3,0.3-2.3,1-3.1s1.6-1.2,2.8-1.2
		c1.1,0,2,0.3,2.7,1s0.9,1.6,0.9,2.8V19h-5l0,0c0,0.6,0.2,1,0.6,1.4c0.3,0.4,0.8,0.5,1.3,0.5c0.5,0,0.9-0.1,1.3-0.2s0.7-0.3,1.1-0.5
		l0.6,1.4c-0.3,0.3-0.8,0.5-1.4,0.7S17.7,22.7,17,22.7z M16.8,15.7c-0.4,0-0.8,0.2-1,0.5s-0.4,0.7-0.5,1.3l0,0h2.8v-0.2
		c0-0.5-0.1-0.9-0.3-1.2S17.3,15.7,16.8,15.7z"/>
	<path fill="#FFFFFF" d="M21.4,18.4c0-1.3,0.3-2.4,0.9-3.2s1.4-1.2,2.4-1.2c0.5,0,0.9,0.1,1.3,0.3c0.4,0.2,0.7,0.5,0.9,0.9l0.2-1.1
		h2v8.4c0,1.1-0.4,1.9-1.1,2.6s-1.7,0.9-3,0.9c-0.4,0-0.9-0.1-1.4-0.2s-0.9-0.3-1.3-0.5l0.4-1.7c0.3,0.2,0.7,0.3,1.1,0.4
		s0.8,0.1,1.2,0.1c0.6,0,1.1-0.1,1.4-0.4s0.4-0.7,0.4-1.2v-0.8c-0.3,0.3-0.5,0.6-0.9,0.7s-0.7,0.3-1.2,0.3c-1,0-1.8-0.4-2.4-1.1
		s-0.9-1.8-0.9-3V18.4z M23.7,18.6c0,0.7,0.1,1.3,0.4,1.8s0.7,0.6,1.2,0.6c0.3,0,0.6-0.1,0.9-0.2c0.2-0.1,0.4-0.3,0.6-0.6v-3.7
		c-0.1-0.3-0.3-0.5-0.6-0.6s-0.5-0.2-0.9-0.2c-0.6,0-1,0.2-1.2,0.7c-0.3,0.5-0.4,1.1-0.4,1.9V18.6z"/>
</g>
</svg>
