<?xml version="1.0" encoding="utf-8"?>
<!-- Generator: Adobe Illustrator 17.1.0, SVG Export Plug-In . SVG Version: 6.00 Build 0)  -->
<!DOCTYPE svg PUBLIC "-//W3C//DTD SVG 1.1//EN" "http://www.w3.org/Graphics/SVG/1.1/DTD/svg11.dtd">
<svg version="1.1" id="Forma_1_1_" xmlns="http://www.w3.org/2000/svg" xmlns:xlink="http://www.w3.org/1999/xlink" x="0px" y="0px"
	 viewBox="0 0 32 33" enable-background="new 0 0 32 33" xml:space="preserve">
<g id="Forma_1">
	<g>
		<path fill="#FFFFFF" d="M29.2,1.3h-1.1c0-0.1,0.1-0.2,0.1-0.3c0-0.5-0.4-1-1-1c-0.5,0-1,0.4-1,1c0,0.1,0,0.2,0.1,0.3h-3.7
			c0-0.1,0.1-0.2,0.1-0.3c0-0.5-0.4-1-1-1c-0.5,0-1,0.4-1,1c0,0.1,0,0.2,0.1,0.3h-3.7C16.9,1.2,17,1.1,17,1c0-0.5-0.4-1-1-1
			c-0.5,0-1,0.4-1,1c0,0.1,0,0.2,0.1,0.3h-3.7c0-0.1,0.1-0.2,0.1-0.3c0-0.5-0.4-1-1-1c-0.5,0-1,0.4-1,1c0,0.1,0,0.2,0.1,0.3H5.8
			c0-0.1,0.1-0.2,0.1-0.3c0-0.5-0.4-1-1-1c-0.5,0-1,0.4-1,1c0,0.1,0,0.2,0.1,0.3H2.8C1.3,1.3,0,2.5,0,4v26.2C0,31.8,1.3,33,2.8,33
			H26l5.9-5.9V4C32,2.5,30.7,1.3,29.2,1.3z M30.5,26.5l-0.3,0.3h-2.4c-1.1,0-2,0.9-2,2v2.4l-0.3,0.3H2.8c-0.7,0-1.3-0.6-1.3-1.3V9.1
			h28.9V26.5z"/>
	</g>
</g>
<g>
	<path fill="#FFFFFF" d="M9.2,21.5c0-0.4-0.2-0.8-0.5-1.1c-0.3-0.3-0.9-0.5-1.6-0.8c-1.4-0.4-2.4-0.9-3.1-1.4c-0.7-0.5-1-1.3-1-2.2
		c0-0.9,0.4-1.7,1.2-2.3C5,13.3,6,13,7.3,13c1.3,0,2.3,0.3,3.1,1c0.8,0.7,1.2,1.5,1.1,2.5l0,0H9.2c0-0.5-0.2-1-0.5-1.3
		c-0.4-0.3-0.8-0.5-1.5-0.5c-0.6,0-1.1,0.1-1.4,0.4c-0.3,0.3-0.5,0.6-0.5,1c0,0.4,0.2,0.7,0.5,0.9c0.4,0.2,1,0.5,1.8,0.8
		c1.3,0.3,2.2,0.8,2.9,1.4c0.6,0.6,1,1.3,1,2.3c0,1-0.4,1.7-1.2,2.3c-0.8,0.6-1.8,0.8-3,0.8c-1.2,0-2.3-0.3-3.2-1S2.7,22.2,2.7,21
		l0,0H5c0,0.7,0.2,1.2,0.6,1.5s1,0.5,1.7,0.5c0.6,0,1.1-0.1,1.4-0.4S9.2,22,9.2,21.5z"/>
	<path fill="#FFFFFF" d="M18,24.5c-0.1-0.2-0.2-0.4-0.2-0.6s-0.1-0.4-0.1-0.7c-0.2,0.4-0.5,0.8-0.9,1s-0.8,0.4-1.4,0.4
		c-0.9,0-1.6-0.2-2-0.7c-0.5-0.5-0.7-1.1-0.7-1.9c0-0.8,0.3-1.5,1-1.9c0.6-0.5,1.6-0.7,2.8-0.7h1.3v-0.7c0-0.4-0.1-0.7-0.3-0.9
		s-0.5-0.3-0.9-0.3c-0.4,0-0.7,0.1-0.9,0.3s-0.3,0.4-0.3,0.7l-2.2,0l0,0c0-0.7,0.3-1.3,0.9-1.8c0.7-0.5,1.5-0.8,2.6-0.8
		c1,0,1.8,0.3,2.5,0.8s0.9,1.2,0.9,2.2v3.5c0,0.4,0,0.8,0.1,1.1s0.2,0.7,0.3,1H18z M15.9,23c0.4,0,0.8-0.1,1.1-0.3s0.5-0.4,0.6-0.7
		v-1.2h-1.3c-0.5,0-0.9,0.1-1.1,0.4s-0.4,0.5-0.4,0.9c0,0.3,0.1,0.5,0.3,0.7S15.6,23,15.9,23z"/>
	<path fill="#FFFFFF" d="M29.3,20.5c0,1.3-0.3,2.3-0.8,3s-1.4,1.1-2.4,1.1c-0.5,0-0.9-0.1-1.3-0.3s-0.7-0.5-0.9-0.9l-0.2,1h-2V12.3
		h2.3V17c0.2-0.3,0.5-0.6,0.9-0.8c0.3-0.2,0.7-0.3,1.2-0.3c1.1,0,1.9,0.4,2.5,1.2s0.8,1.9,0.8,3.2V20.5z M27,20.4
		c0-0.8-0.1-1.5-0.4-2c-0.2-0.5-0.7-0.7-1.2-0.7c-0.4,0-0.7,0.1-0.9,0.2s-0.4,0.4-0.6,0.6v3.6c0.1,0.3,0.3,0.5,0.6,0.6
		c0.2,0.1,0.6,0.2,0.9,0.2c0.6,0,1-0.2,1.2-0.6c0.2-0.4,0.4-1,0.4-1.8V20.4z"/>
</g>
</svg>
