<?xml version="1.0" encoding="utf-8"?>
<!-- Generator: Adobe Illustrator 17.1.0, SVG Export Plug-In . SVG Version: 6.00 Build 0)  -->
<!DOCTYPE svg PUBLIC "-//W3C//DTD SVG 1.1//EN" "http://www.w3.org/Graphics/SVG/1.1/DTD/svg11.dtd">
<svg version="1.1" id="Forma_1_1_" xmlns="http://www.w3.org/2000/svg" xmlns:xlink="http://www.w3.org/1999/xlink" x="0px" y="0px"
	 viewBox="0 0 200 200" enable-background="new 0 0 200 200" xml:space="preserve">
<g id="Forma_1">
	<g>
		<path fill="#FFFFFF" d="M180,7.9h-6.7c0-0.6,0.6-1.2,0.6-1.8c0-3-2.4-6.1-6.1-6.1c-3,0-6.1,2.4-6.1,6.1c0,0.6,0,1.2,0.6,1.8H140
			c0-0.6,0.6-1.2,0.6-1.8c0-3-2.4-6.1-6.1-6.1c-3,0-6.1,2.4-6.1,6.1c0,0.6,0,1.2,0.6,1.8h-22.4c-1.2-0.6-0.6-1.2-0.6-1.8
			c0-3-2.4-6.1-6.1-6.1c-3,0-6.1,2.4-6.1,6.1c0,0.6,0,1.2,0.6,1.8H72.1c0-0.6,0.6-1.2,0.6-1.8c0-3-2.4-6.1-6.1-6.1
			c-3,0-6.1,2.4-6.1,6.1c0,0.6,0,1.2,0.6,1.8h-23c0-0.6,0.6-1.2,0.6-1.8c0-3-2.4-6.1-6.1-6.1c-3,0-6.1,2.4-6.1,6.1
			c0,0.6,0,1.2,0.6,1.8H20c-9.1,0-17,7.3-17,16.4V183c0,9.7,7.9,17,17,17h140.6l35.8-35.8v-140C197,15.2,189.1,7.9,180,7.9z
			 M187.9,160.6l-1.8,1.8h-14.5c-6.7,0-12.1,5.5-12.1,12.1v14.5l-1.8,1.8H20c-4.2,0-7.9-3.6-7.9-7.9V55.2h175.2v105.5H187.9z"/>
	</g>
</g>
<g>
	<path fill="#FFFFFF" d="M70.7,146.4H57.8v-26.8H31.5v26.8H18.6V81.9h12.9v27.7h26.3V81.9h12.9V146.4z"/>
	<path fill="#FFFFFF" d="M72.7,122c0-7.1,2-13,6-17.6c4-4.6,9.5-6.8,16.6-6.8c7.1,0,12.6,2.3,16.7,6.8c4,4.5,6,10.4,6,17.6v0.9
		c0,7.2-2,13.1-6,17.6s-9.5,6.8-16.6,6.8c-7.1,0-12.6-2.3-16.6-6.8c-4-4.5-6-10.4-6-17.6V122z M85.6,122.9c0,4.4,0.8,7.9,2.3,10.5
		c1.5,2.6,4,4,7.4,4c3.3,0,5.8-1.3,7.3-4c1.5-2.7,2.3-6.2,2.3-10.5V122c0-4.2-0.8-7.7-2.3-10.4c-1.6-2.7-4-4-7.4-4
		c-3.3,0-5.8,1.4-7.3,4c-1.6,2.7-2.3,6.2-2.3,10.4V122.9z"/>
	<path fill="#FFFFFF" d="M134.8,98.5v49.7c0,5.6-1.5,9.9-4.5,13c-3,3.1-7.1,4.6-12.5,4.6c-1.2,0-2.3-0.1-3.2-0.2s-2-0.3-3.1-0.6
		l0.6-9.9c0.7,0.2,1.4,0.3,2,0.4c0.7,0.1,1.4,0.1,2.2,0.1c1.7,0,3.1-0.6,4-1.8c0.9-1.2,1.4-3.1,1.4-5.7V98.5H134.8z M134.6,86.9h-13
		v-9.6h13V86.9z"/>
	<path fill="#FFFFFF" d="M162.1,147.4c-6.9,0-12.4-2.2-16.6-6.6c-4.1-4.4-6.2-10.1-6.2-16.9v-1.8c0-7.1,2-13,5.9-17.6
		c3.9-4.6,9.2-6.9,15.8-6.9c6.5,0,11.5,1.9,15.1,5.8s5.4,9.2,5.4,15.8v7h-28.6l-0.1,0.3c0.2,3.1,1.3,5.7,3.2,7.8c1.9,2,4.4,3,7.6,3
		c2.9,0,5.2-0.3,7.1-0.9c1.9-0.6,4-1.5,6.2-2.7l3.5,8c-1.9,1.6-4.5,2.9-7.7,4C169.5,146.8,166,147.4,162.1,147.4z M161,107.6
		c-2.4,0-4.3,0.9-5.7,2.7c-1.4,1.8-2.2,4.2-2.6,7.2l0.1,0.2h15.9v-1.2c0-2.7-0.6-4.9-1.9-6.6C165.5,108.4,163.6,107.6,161,107.6z"/>
</g>
</svg>
