<?xml version="1.0" encoding="utf-8"?>
<!-- Generator: Adobe Illustrator 17.1.0, SVG Export Plug-In . SVG Version: 6.00 Build 0)  -->
<!DOCTYPE svg PUBLIC "-//W3C//DTD SVG 1.1//EN" "http://www.w3.org/Graphics/SVG/1.1/DTD/svg11.dtd">
<svg version="1.1" id="Layer_1" xmlns="http://www.w3.org/2000/svg" xmlns:xlink="http://www.w3.org/1999/xlink" x="0px" y="0px"
	 viewBox="0 0 203.607 202.623" enable-background="new 0 0 203.607 202.623" xml:space="preserve">
<g>
	<path fill="none" d="M110.85,27.819c36.499,4.571,64.737,35.714,64.737,73.452c0,37.821-28.362,69.018-64.977,73.482"/>
	<path fill="none" d="M28.02,92.693c3.88-33.625,30.29-60.389,63.747-64.81"/>
	<path fill="none" d="M92.939,174.804c-33.959-3.937-60.912-30.857-64.901-64.8"/>
</g>
<g>
	<polygon fill="#FFFFFF" stroke="#FFFFFF" stroke-width="7" stroke-miterlimit="10" points="123.016,122.525 191.803,101.311 
		123.016,80.098 101.803,101.311 	"/>
	<polygon fill="none" stroke="#FFFFFF" stroke-width="7" stroke-miterlimit="10" points="123.016,80.098 101.803,11.311 
		80.59,80.098 101.803,101.311 	"/>
	<polygon fill="none" stroke="#FFFFFF" stroke-width="7" stroke-miterlimit="10" points="80.59,80.098 11.803,101.311 
		80.59,122.525 101.803,101.311 	"/>
	<polygon fill="none" stroke="#FFFFFF" stroke-width="7" stroke-miterlimit="10" points="123.016,122.525 101.803,101.311 
		80.59,122.525 101.803,191.311 	"/>
</g>
</svg>
