<?xml version="1.0" encoding="utf-8"?>
<!-- Generator: Adobe Illustrator 17.1.0, SVG Export Plug-In . SVG Version: 6.00 Build 0)  -->
<!DOCTYPE svg PUBLIC "-//W3C//DTD SVG 1.1//EN" "http://www.w3.org/Graphics/SVG/1.1/DTD/svg11.dtd">
<svg version="1.1" id="Forma_1_1_" xmlns="http://www.w3.org/2000/svg" xmlns:xlink="http://www.w3.org/1999/xlink" x="0px" y="0px"
	 viewBox="0 0 512 320" enable-background="new 0 0 512 320" xml:space="preserve">
<g id="Forma_1">
	<g>
		<path fill-rule="evenodd" clip-rule="evenodd" fill="#FFFFFF" d="M256.5,0.5c-111.7,0-208.4,65-256,160c47.6,95,144.3,160,256,160
			c111.7,0,208.4-65,256-160C464.9,65.5,368.2,0.5,256.5,0.5z M208.5,61.5c26.5,0,48,21.5,48,48c0,26.5-21.5,48-48,48
			c-26.5,0-48-21.5-48-48C160.5,83,182,61.5,208.5,61.5z M382.7,235.6c-37.8,24.1-81.4,36.9-126.2,36.9
			c-44.8,0-88.4-12.7-126.2-36.9c-30.1-19.2-55.6-44.9-74.7-75.1c19.1-30.3,44.6-56,74.7-75.1c2-1.3,3.9-2.5,5.9-3.7
			c-5,13.7-7.7,28.4-7.7,43.8c0,70.7,57.3,128,128,128c70.7,0,128-57.3,128-128c0-15.4-2.7-30.1-7.7-43.8c2,1.2,4,2.4,5.9,3.7
			c30.1,19.2,55.6,44.9,74.7,75.1C438.3,190.8,412.8,216.5,382.7,235.6z"/>
	</g>
</g>
</svg>
