<?xml version="1.0" encoding="utf-8"?>
<!-- Generator: Adobe Illustrator 17.1.0, SVG Export Plug-In . SVG Version: 6.00 Build 0)  -->
<!DOCTYPE svg PUBLIC "-//W3C//DTD SVG 1.1//EN" "http://www.w3.org/Graphics/SVG/1.1/DTD/svg11.dtd">
<svg version="1.1" id="Forma_1_1_" xmlns="http://www.w3.org/2000/svg" xmlns:xlink="http://www.w3.org/1999/xlink" x="0px" y="0px"
	 viewBox="0 0 612 479" enable-background="new 0 0 612 479" xml:space="preserve">
<g id="Forma_1">
	<g>
		<path fill="#FFFFFF" d="M611.2,464.7l-94.3-193.6c-1.5-3.1-5.5-5.6-9-5.6h-81c-2.5,0-5.8,1.6-7.5,3.4
			c-5.5,6.3-11.1,12.5-16.7,18.7c-5.3,5.8-10.6,11.7-15.9,17.7H483c3.4,0,7.5,2.5,9,5.6l62.4,128.2H58.6L121,310.9
			c1.5-3.1,5.5-5.6,9-5.6h95.9c-5.3-6-10.6-11.9-15.9-17.7c-5.6-6.1-11.2-12.3-16.6-18.7c-1.6-1.9-5-3.4-7.5-3.4h-80.8
			c-3.4,0-7.5,2.5-9,5.6L1.8,464.7C-2,472.6,2,479,10.8,479h591.4c5,0,8.5-2.1,9.8-5.4v-6.8C611.8,466.1,611.5,465.4,611.2,464.7z
			 M297.2,366c3.4,8.3,15,8.3,18.4,0C357,264.4,445.1,244.6,445.1,138.8c0-81-69.5-145.8-152.2-138c-81.3,7.7-137,86.4-122.8,166.8
			C184.5,249.3,259.8,274.4,297.2,366z M306.4,65.6c40.5,0,73.2,32.8,73.2,73.2c0,40.4-32.8,73.2-73.2,73.2
			c-40.5,0-73.2-32.8-73.2-73.2C233.2,98.4,265.9,65.6,306.4,65.6z"/>
	</g>
</g>
</svg>
