<?xml version="1.0" encoding="utf-8"?>
<!-- Generator: Adobe Illustrator 17.1.0, SVG Export Plug-In . SVG Version: 6.00 Build 0)  -->
<!DOCTYPE svg PUBLIC "-//W3C//DTD SVG 1.1//EN" "http://www.w3.org/Graphics/SVG/1.1/DTD/svg11.dtd">
<svg version="1.1" id="Layer_1" xmlns="http://www.w3.org/2000/svg" xmlns:xlink="http://www.w3.org/1999/xlink" x="0px" y="0px"
	 viewBox="0 0 203.607 202.623" enable-background="new 0 0 203.607 202.623" xml:space="preserve">
<g>
	<path fill="none" d="M28.311,92.264c4.571-36.499,35.714-64.737,73.452-64.737c37.821,0,69.018,28.362,73.482,64.977"/>
	<path fill="none" d="M93.185,175.095c-33.625-3.88-60.389-30.29-64.81-63.747"/>
	<path fill="none" d="M175.296,110.176c-3.937,33.959-30.857,60.912-64.8,64.901"/>
</g>
<g>
	<polygon fill="#FFFFFF" stroke="#FFFFFF" stroke-width="7" stroke-miterlimit="10" points="123.016,80.098 101.803,11.311 
		80.59,80.098 101.803,101.311 	"/>
	<polygon fill="none" stroke="#FFFFFF" stroke-width="7" stroke-miterlimit="10" points="80.59,80.098 11.803,101.311 
		80.59,122.525 101.803,101.311 	"/>
	<polygon fill="none" stroke="#FFFFFF" stroke-width="7" stroke-miterlimit="10" points="80.59,122.525 101.803,191.311 
		123.016,122.525 101.803,101.311 	"/>
	<polygon fill="none" stroke="#FFFFFF" stroke-width="7" stroke-miterlimit="10" points="123.016,80.098 101.803,101.311 
		123.016,122.525 191.803,101.311 	"/>
</g>
</svg>
