<?xml version="1.0" encoding="utf-8"?>
<!-- Generator: Adobe Illustrator 17.1.0, SVG Export Plug-In . SVG Version: 6.00 Build 0)  -->
<!DOCTYPE svg PUBLIC "-//W3C//DTD SVG 1.1//EN" "http://www.w3.org/Graphics/SVG/1.1/DTD/svg11.dtd">
<svg version="1.1" id="Forma_1_1_" xmlns="http://www.w3.org/2000/svg" xmlns:xlink="http://www.w3.org/1999/xlink" x="0px" y="0px"
	 viewBox="0 0 43 46" enable-background="new 0 0 43 46" xml:space="preserve">
<g id="Forma_1">
	<g>
		<path fill="#FFFFFF" d="M3.7,13.8c2.6-4,6.6-6.9,11.3-8c0.4-0.1,0.7-0.3,0.8-0.7C16,4.7,15.9,4.3,15.7,4c-1.5-2.4-4.2-4-7.2-4
			C3.8,0,0,3.8,0,8.6c0,2,0.7,3.9,1.8,5.3c0.2,0.3,0.6,0.5,1,0.4C3.2,14.3,3.5,14.1,3.7,13.8z M34.5,0c-3,0-5.7,1.6-7.2,4
			c-0.2,0.3-0.2,0.7-0.1,1.1c0.1,0.4,0.4,0.6,0.8,0.7c4.7,1.1,8.8,4,11.4,8c0.2,0.3,0.6,0.5,0.9,0.5c0.4,0,0.7-0.2,1-0.5
			c1.1-1.4,1.8-3.2,1.8-5.2C43,3.8,39.2,0,34.5,0z M40.3,26.3c0-3.3-0.9-6.4-2.3-9.1c-2.8-5-7.7-8.6-13.6-9.5
			c-0.9-0.1-1.9-0.2-2.8-0.2c-1,0-2,0.1-3,0.3c-5.8,0.9-10.8,4.6-13.5,9.6c-1.5,2.7-2.3,5.8-2.3,9c0,5.6,2.5,10.6,6.3,14.1l-1.6,2.2
			c-0.7,1-0.5,2.3,0.5,3C8.4,45.9,8.9,46,9.3,46c0.7,0,1.3-0.3,1.7-0.9l1.6-2.2c2.7,1.5,5.7,2.3,9,2.3c3.2,0,6.3-0.8,9-2.3l1.6,2.2
			c0.4,0.6,1.1,0.9,1.7,0.9c0.4,0,0.9-0.1,1.2-0.4c1-0.7,1.2-2,0.5-3L34,40.4C37.9,36.9,40.3,31.9,40.3,26.3z M21.6,39.9
			C14.1,39.9,8,33.8,8,26.3c0-2.3,0.6-4.5,1.6-6.5c2-3.7,5.6-6.3,9.8-7c0.7-0.1,1.4-0.2,2.1-0.2c0.7,0,1.3,0.1,2,0.2
			c4.3,0.6,7.9,3.3,9.9,6.9c1,1.9,1.6,4.1,1.6,6.5C35.1,33.8,29,39.9,21.6,39.9z M29.1,29.4L24,26.2c-0.1-0.6-0.4-1.1-0.9-1.5
			l0.2-6.5c0-0.8-0.6-1.5-1.4-1.6c-0.8,0-1.5,0.6-1.6,1.5l-0.2,6.5c-0.6,0.5-1.1,1.2-1.1,2.1c0,1.4,1.1,2.5,2.5,2.5
			c0.4,0,0.8-0.1,1.1-0.3l4.9,3.1c0.2,0.2,0.5,0.2,0.8,0.2c0.5,0,1-0.3,1.3-0.7C30.1,30.8,29.8,29.9,29.1,29.4z"/>
	</g>
</g>
</svg>
