<?xml version="1.0" encoding="utf-8"?>
<!-- Generator: Adobe Illustrator 17.1.0, SVG Export Plug-In . SVG Version: 6.00 Build 0)  -->
<!DOCTYPE svg PUBLIC "-//W3C//DTD SVG 1.1//EN" "http://www.w3.org/Graphics/SVG/1.1/DTD/svg11.dtd">
<svg version="1.1" id="Forma_1_1_" xmlns="http://www.w3.org/2000/svg" xmlns:xlink="http://www.w3.org/1999/xlink" x="0px" y="0px"
	 viewBox="-180.3 0 792.3 792" enable-background="new -180.3 0 792.3 792" xml:space="preserve">
<rect x="-516" y="-132" display="none" fill="#AD3131" stroke="#FFFFFF" stroke-width="5" stroke-miterlimit="10" width="1476" height="992"/>
<path fill="#FFFFFF" stroke="#FFFFFF" stroke-miterlimit="10" d="M447.9,4.8h-44.4c-4.8,0-9.5,1.8-13,4.8c-0.7,0.5-1.2,1.2-1.7,2.1
	C340.1,99.3,302.6,285.8,215.8,285c-97.1-0.6-128.4-189.4-176-276c-0.8-1.5-2.2-2.7-3.8-3.2c-1.4-0.5-2.9-0.9-4.5-1.1
	c-0.3,0-0.6-0.1-0.9-0.1h-0.9h-46C-27.2,4.7-36,13.6-36,24.6v415.7c0,11.1,7.8,15.2,16.7,21.6l7.1,3.3c0.7,0.4,1.4,0.8,2.1,1.3
	c3.3,2.9,2.4,1.1,10.8,3.2c0.9,0.3,1.5,1.1,2.3,1.4c73.4,28.6,93.2,315.3,212.9,316.1c108.4,0.8,140-291.1,212.6-316.3
	c6.9-2.4,11.4-5.3,15.9-8c0.2-0.1,0.3-0.2,0.4-0.3l3.4-1.9c0.9-0.4,1.9-0.7,2.9-0.8c10.3-0.7,16.7-9.3,16.7-19.8V24.7
	C467.9,13.6,459,4.8,447.9,4.8z"/>
<g>
	<g>
		<path fill="#FFFFFF" d="M-137.8,15.7l-34.7,34.5L7.5,229.2c10.8-12.7,20.1-26.4,28.3-40.8L-137.8,15.7z"/>
		<path fill="#FFFFFF" d="M8,240L-182.9,50.1l45.1-44.8L44.9,187.1l-2.7,4.8c-8.6,15.2-18.4,29.4-29.1,41.9L8,240z M-162.2,50.1
			L7,218.3c7-8.9,13.6-18.5,19.7-28.7L-137.8,26L-162.2,50.1z"/>
	</g>
	<g>
		<path fill="#FFFFFF" d="M601.1,60.2l-44.9-44.6l-327.6,326c1.9,8.1,3.9,16.1,5.9,24.7c1.3,8.8,5.1,20.1,0,30.2
			c-3.8,5,0,17.6-2.5,17.6c-23.1,6.9-51.4,7.4-74.5-2l-330,328.2l44.9,44.6l341.9-340.1l341.9,340.1l44.9-44.6L259.1,400.3
			L601.1,60.2z"/>
		<path fill="#FFFFFF" d="M556.2,795.2L214.3,455.2l-341.9,340.1l-55.3-54.9l338.7-336.8l4.5,1.9c10.5,4.3,23,6.6,36.2,6.6
			c9.7,0,19.7-1.2,29-3.6c-0.2-4.7-0.4-10.8,2.7-15.5c2.7-5.9,1.4-13,0.1-19.8c-0.3-1.8-0.7-3.6-0.9-5.3c-1-4.1-1.9-8.1-2.9-12
			c-1-4.2-2-8.3-3-12.4l-0.9-4l335.7-334l55.3,54.9L269.5,400.3l341.9,340.1L556.2,795.2z M214.3,434.5l341.9,340.1l34.5-34.3
			L248.8,400.3L590.7,60.2L556.2,26L236.6,343.9c0.7,2.8,1.3,5.5,2,8.3c1,4,2,8.2,3,12.4l0.1,0.6c0.2,1.5,0.5,3.2,0.9,5
			c1.6,8.5,3.6,19.2-1.6,29.5l-0.3,0.6l-0.3,0.4c-0.6,1.3-0.4,5.4-0.3,7.4c0.2,4.2,0.4,7.9-2.4,10.8c-1.1,1.2-2.6,2-4.2,2.3
			c-11.8,3.5-24.6,5.3-37.1,5.3c-13.2,0-25.9-2.1-37.1-6l-321.5,319.7l34.5,34.3L214.3,434.5z"/>
	</g>
</g>
</svg>
