<?xml version="1.0" encoding="utf-8"?>
<!-- Generator: Adobe Illustrator 17.1.0, SVG Export Plug-In . SVG Version: 6.00 Build 0)  -->
<!DOCTYPE svg PUBLIC "-//W3C//DTD SVG 1.1//EN" "http://www.w3.org/Graphics/SVG/1.1/DTD/svg11.dtd">
<svg version="1.1" id="Forma_1_1_" xmlns="http://www.w3.org/2000/svg" xmlns:xlink="http://www.w3.org/1999/xlink" x="0px" y="0px"
	 viewBox="0 0 92 92" enable-background="new 0 0 92 92" xml:space="preserve">
<g id="Forma_1">
	<g>
		<path fill-rule="evenodd" clip-rule="evenodd" fill="#FFFFFF" d="M45.9,0C20.5,0.3,0.2,21.2,0.5,46.6C0.8,72,21.7,92.3,47.1,92
			c25.4-0.3,45.7-21.2,45.4-46.6C92.2,20,71.3-0.3,45.9,0z M45.7,74l-0.3,0c-3.9-0.1-6.7-3-6.6-6.9c0.1-3.8,2.9-6.5,6.7-6.5l0.2,0
			c4,0.1,6.7,3,6.6,6.9C52.4,71.3,49.6,74,45.7,74z M62.2,41.3c-0.9,1.3-2.9,2.9-5.5,4.9l-2.8,1.9c-1.5,1.2-2.5,2.3-2.8,3.4
			c-0.3,0.9-0.4,1.1-0.4,2.9l0,0.5H39.9l0-0.9c0.1-3.7,0.2-5.9,1.8-7.7c2.4-2.8,7.8-6.3,8-6.4c0.8-0.6,1.4-1.2,1.9-1.9
			c1.1-1.6,1.6-2.8,1.6-4c0-1.7-0.5-3.2-1.5-4.6c-0.9-1.3-2.7-2-5.3-2c-2.6,0-4.3,0.8-5.4,2.5c-1.1,1.7-1.6,3.5-1.6,5.4v0.5H28.4
			l0-0.5c0.3-6.8,2.7-11.6,7.2-14.5C38.4,18.9,41.9,18,46,18c5.3,0,9.9,1.3,13.4,3.9c3.6,2.6,5.4,6.5,5.4,11.6
			C64.9,36.3,64,38.9,62.2,41.3z"/>
	</g>
</g>
</svg>
