<?xml version="1.0" encoding="utf-8"?>
<!-- Generator: Adobe Illustrator 17.1.0, SVG Export Plug-In . SVG Version: 6.00 Build 0)  -->
<!DOCTYPE svg PUBLIC "-//W3C//DTD SVG 1.1//EN" "http://www.w3.org/Graphics/SVG/1.1/DTD/svg11.dtd">
<svg version="1.1" id="Forma_1_1_" xmlns="http://www.w3.org/2000/svg" xmlns:xlink="http://www.w3.org/1999/xlink" x="0px" y="0px"
	 viewBox="0 0 131 105" enable-background="new 0 0 131 105" xml:space="preserve">
<g id="Forma_1">
	<g>
		<path fill="#FFFFFF" d="M65.5,21.3L18.7,60c0,0.1,0,0.1,0,0.2c0,0.1,0,0.2,0,0.2v39.1c0,1.4,0.5,2.6,1.5,3.7c1,1,2.3,1.6,3.7,1.6
			h31.3V73.5h20.9v31.3h31.3c1.4,0,2.6-0.5,3.7-1.5c1-1,1.5-2.3,1.5-3.7V60.4c0-0.2,0-0.4-0.1-0.5L65.5,21.3z M130.3,51.2
			l-17.8-14.8V3.1c0-0.8-0.2-1.4-0.7-1.9c-0.5-0.5-1.1-0.7-1.9-0.7H94.2c-0.8,0-1.4,0.2-1.9,0.7c-0.5,0.5-0.7,1.1-0.7,1.9V19
			L71.7,2.4c-1.7-1.4-3.8-2.1-6.2-2.1c-2.4,0-4.5,0.7-6.2,2.1L0.7,51.2c-0.5,0.4-0.8,1-0.9,1.8c-0.1,0.7,0.1,1.4,0.6,1.9l5.1,6
			c0.4,0.5,1,0.8,1.7,0.9c0.7,0.1,1.3-0.1,2-0.6l56.4-47l56.4,47c0.4,0.4,1,0.6,1.7,0.6h0.2c0.7-0.1,1.3-0.4,1.7-0.9l5.1-6
			c0.4-0.5,0.6-1.2,0.6-1.9C131.1,52.2,130.8,51.6,130.3,51.2z"/>
	</g>
</g>
</svg>
