<?xml version="1.0" encoding="utf-8"?>
<!-- Generator: Adobe Illustrator 17.1.0, SVG Export Plug-In . SVG Version: 6.00 Build 0)  -->
<!DOCTYPE svg PUBLIC "-//W3C//DTD SVG 1.1//EN" "http://www.w3.org/Graphics/SVG/1.1/DTD/svg11.dtd">
<svg version="1.1" id="Forma_1_1_" xmlns="http://www.w3.org/2000/svg" xmlns:xlink="http://www.w3.org/1999/xlink" x="0px" y="0px"
	 viewBox="0 0 612 887.6" enable-background="new 0 0 612 887.6" xml:space="preserve">
<path fill="#FFFFFF" d="M566.1,5.3h-49.8c-5.4,0-10.6,2-14.6,5.4c-0.8,0.6-1.4,1.4-1.9,2.3c-54.6,98.2-96.6,307.2-193.8,306.4
	c-108.8-0.7-143.9-212.3-197.2-309.3c-0.9-1.7-2.5-3-4.3-3.6c-1.6-0.6-3.2-1-5-1.2c-0.3,0-0.7-0.1-1-0.1h-1H46
	c-12.4,0-22.3,10-22.3,22.3v465.9c0,12.4,8.7,17,18.7,24.2l8,3.7c0.8,0.4,1.6,0.9,2.3,1.5c3.7,3.3,2.7,1.2,12.1,3.6
	c1,0.3,1.7,1.2,2.6,1.6C149.7,560,171.9,881.4,306,882.3c121.5,0.9,156.9-326.2,238.3-354.5c7.7-2.7,12.8-5.9,17.8-9
	c0.2-0.1,0.3-0.2,0.5-0.3l3.8-2.1c1-0.5,2.1-0.8,3.2-0.9c11.5-0.8,18.7-10.4,18.7-22.2V27.6C588.5,15.2,578.5,5.3,566.1,5.3z"/>
</svg>
