<?xml version="1.0" encoding="utf-8"?>
<!-- Generator: Adobe Illustrator 17.1.0, SVG Export Plug-In . SVG Version: 6.00 Build 0)  -->
<!DOCTYPE svg PUBLIC "-//W3C//DTD SVG 1.1//EN" "http://www.w3.org/Graphics/SVG/1.1/DTD/svg11.dtd">
<svg version="1.1" id="Forma_1_1_" xmlns="http://www.w3.org/2000/svg" xmlns:xlink="http://www.w3.org/1999/xlink" x="0px" y="0px"
	 viewBox="0 0 106 106" enable-background="new 0 0 106 106" xml:space="preserve">
<g id="Forma_1">
	<g>
		<path fill="#FFFFFF" d="M39.5,44.9c3.4,0,6.2-2.8,6.2-6.2c0-3.4-2.8-6.2-6.2-6.2c-3.4,0-6.2,2.8-6.2,6.2
			C33.3,42.1,36,44.9,39.5,44.9z M67.5,44.9c3.4,0,6.2-2.8,6.2-6.2c0-3.4-2.8-6.2-6.2-6.2c-3.4,0-6.2,2.8-6.2,6.2
			C61.3,42.1,64.1,44.9,67.5,44.9z M74.4,60.1c-1.5-0.7-3.3,0-3.9,1.6c-2.9,6.7-9.7,11-17.4,11c-7.8,0-14.7-4.3-17.5-11
			c-0.5-1.2-1.6-1.8-2.8-1.8c-0.4,0-0.8,0.1-1.1,0.2c-1.5,0.6-2.2,2.4-1.6,3.9c3.7,8.9,12.7,14.7,23,14.7c10.1,0,19-5.7,22.9-14.6
			C76.6,62.5,75.9,60.7,74.4,60.1z M90.4,15.6C69.8-5,36.2-5,15.6,15.6C-5,36.2-5,69.8,15.6,90.4c20.6,20.6,54.2,20.6,74.8,0
			C111,69.8,111,36.2,90.4,15.6z M84.6,84.6c-17.4,17.4-45.8,17.4-63.2,0c-17.4-17.4-17.4-45.8,0-63.2c17.4-17.4,45.8-17.4,63.2,0
			C102.1,38.8,102.1,67.2,84.6,84.6z"/>
	</g>
</g>
</svg>
