<?xml version="1.0" encoding="utf-8"?>
<!-- Generator: Adobe Illustrator 17.1.0, SVG Export Plug-In . SVG Version: 6.00 Build 0)  -->
<!DOCTYPE svg PUBLIC "-//W3C//DTD SVG 1.1//EN" "http://www.w3.org/Graphics/SVG/1.1/DTD/svg11.dtd">
<svg version="1.1" id="Layer_1" xmlns="http://www.w3.org/2000/svg" xmlns:xlink="http://www.w3.org/1999/xlink" x="0px" y="0px"
	 viewBox="0 -4.6 200 204.6" enable-background="new 0 -4.6 200 204.6" xml:space="preserve">
<rect x="18.3" y="-3.5" display="none" fill="#F15A29" width="172.4" height="221.6"/>
<g>
	<g>
		<polyline fill="none" stroke="#FFFFFF" stroke-width="14" stroke-miterlimit="10" points="51,60 41,60 41,70 		"/>
		<line fill="none" stroke="#FFFFFF" stroke-width="14" stroke-miterlimit="10" x1="41" y1="84.1" x2="41" y2="175.4"/>
		<polyline fill="none" stroke="#FFFFFF" stroke-width="14" stroke-miterlimit="10" points="41,182.4 41,192.4 51,192.4 		"/>
		<line fill="none" stroke="#FFFFFF" stroke-width="14" stroke-miterlimit="10" x1="68.1" y1="192.4" x2="139.3" y2="192.4"/>
		<polyline fill="none" stroke="#FFFFFF" stroke-width="14" stroke-miterlimit="10" points="147.8,192.4 157.8,192.4 157.8,182.4 		
			"/>
		<line fill="none" stroke="#FFFFFF" stroke-width="14" stroke-miterlimit="10" x1="157.8" y1="168.3" x2="157.8" y2="77"/>
		<polyline fill="none" stroke="#FFFFFF" stroke-width="14" stroke-miterlimit="10" points="157.8,70 157.8,60 147.8,60 		"/>
		<line fill="none" stroke="#FFFFFF" stroke-width="14" stroke-miterlimit="10" x1="130.8" y1="60" x2="59.6" y2="60"/>
	</g>
</g>
<line fill="none" stroke="#FFFFFF" stroke-width="14" stroke-miterlimit="10" stroke-dasharray="25,15" x1="78.8" y1="73.6" x2="78.8" y2="198.9"/>
<line fill="none" stroke="#FFFFFF" stroke-width="14" stroke-miterlimit="10" stroke-dasharray="25,15" x1="119.2" y1="73.6" x2="119.2" y2="199"/>
<g id="Forma_1">
	<g>
		<path fill="#FFFFFF" d="M33.9,48.6H165V22.9h-31.8V-4.6L65.7-4.5V23H33.9V48.6z M119.4,8.6V23h-40V8.6H119.4z"/>
	</g>
</g>
</svg>
