<?xml version="1.0" encoding="utf-8"?>
<!-- Generator: Adobe Illustrator 17.1.0, SVG Export Plug-In . SVG Version: 6.00 Build 0)  -->
<!DOCTYPE svg PUBLIC "-//W3C//DTD SVG 1.1//EN" "http://www.w3.org/Graphics/SVG/1.1/DTD/svg11.dtd">
<svg version="1.1" id="Forma_1_1_" xmlns="http://www.w3.org/2000/svg" xmlns:xlink="http://www.w3.org/1999/xlink" x="0px" y="0px"
	 viewBox="0 0 22 24" enable-background="new 0 0 22 24" xml:space="preserve">
<g id="Forma_1">
	<g>
		<path fill="#FFFFFF" d="M17.4,6c1.4,0,2.5-1.1,2.5-2.5S18.8,1,17.4,1c-1.4,0-2.5,1.1-2.5,2.5S16.1,6,17.4,6z M18.3,11l-1.1-3.4
			c0-0.1-0.1-0.1-0.1-0.2c-0.1-0.2-0.2-0.3-0.4-0.5l-1.6-1.1c-0.1-0.1-0.3-0.2-0.4-0.3l-3.8-1.3C10.6,4,10.2,4,10,4.1L5.7,6.5
			C5.1,6.8,4.9,7.5,5.2,8c0.2,0.4,0.5,0.6,0.9,0.6c0.2,0,0.4,0,0.6-0.1l3.9-2l2.3,0.8l-3,4.6c-0.6,1-0.9,2-0.3,2.7
			c0.1,0.2,0.2,0.4,0.5,0.5l3.8,2.8l-2.3,5.1c-0.1,0.3-0.1,0.6,0,0.9h2.6l2.6-6.1c0.3-0.5,0.1-1.2-0.4-1.6l-3-2.2l2.4-3.9l0.7,2.1
			c0.1,0.4,0.4,0.7,0.8,0.8l4.3,1.1h0.1c0.1,0,0.3,0,0.4,0v-2.3L18.3,11z M8.4,14.6l-1.3,1.8H2.4C1.7,16.4,1,17,1,17.7
			c0,0.8,0.6,1.4,1.4,1.4h5.5c0.5,0,0.9-0.2,1.2-0.7l1.3-1.9C10.3,16.5,8.5,15.3,8.4,14.6z"/>
	</g>
</g>
</svg>
