<?xml version="1.0" encoding="utf-8"?>
<!-- Generator: Adobe Illustrator 17.1.0, SVG Export Plug-In . SVG Version: 6.00 Build 0)  -->
<!DOCTYPE svg PUBLIC "-//W3C//DTD SVG 1.1//EN" "http://www.w3.org/Graphics/SVG/1.1/DTD/svg11.dtd">
<svg version="1.1" id="Forma_1_1_" xmlns="http://www.w3.org/2000/svg" xmlns:xlink="http://www.w3.org/1999/xlink" x="0px" y="0px"
	 viewBox="0 0 578 532" enable-background="new 0 0 578 532" xml:space="preserve">
<g id="Forma_1">
	<g>
		<path fill="#FFFFFF" d="M567.8,454.2l-162-164.6c-6.4,3.8-11.5,6.4-19.1,8.9c-7.7,2.6-16.6,3.8-25.5,3.8
			c-10.2,0-20.4-2.6-29.3-5.1l-52.3,54.9c6.4,5.1,15.3,7.7,24.2,8.9c11.5,0,23-3.8,31.9-12.8l1.3-1.3l162,172.2
			c6.4,6.4,15.3,10.2,24.2,10.2c8.9,0,17.9-3.8,24.2-10.2l20.4-20.4c6.4-6.4,10.2-15.3,10.2-24.2C578,465.7,574.2,459.3,567.8,454.2
			z M179.9,238.6l48.5-45.9c-2.6-8.9-3.8-17.9-3.8-26.8c0-15.3,5.1-30.6,12.8-43.4L135.2,16.6c-15.3-15.3-42.1-15.3-57.4,0
			C51,43.4,49.8,86.8,74,116.1L179.9,238.6z M333,253.9c7.7,7.7,17.9,11.5,28.1,11.5s20.4-3.8,28.1-11.5L518,125
			c5.1-5.1,5.1-12.8,0-17.9l-2.6-2.6c-2.6-2.6-5.1-3.8-8.9-3.8c-3.8,0-6.4,1.3-8.9,3.8l-85.5,85.5c-3.8,3.8-8.9,5.1-14,5.1
			c-5.1,0-10.2-2.6-14-5.1l-2.6-2.6c-7.7-7.7-7.7-19.1,0-26.8L467,75.3c5.1-5.1,5.1-12.8,0-17.9l-2.6-2.6c-2.6-2.6-5.1-3.8-8.9-3.8
			s-6.4,1.3-8.9,3.8l-85.5,85.5c-3.8,3.8-8.9,5.1-14,5.1c-5.1,0-10.2-2.6-14-5.1l-2.6-2.6c-3.8-3.8-5.1-8.9-5.1-14
			c0-5.1,2.6-10.2,5.1-14L416,24.2c2.6-2.6,3.8-5.1,3.8-8.9s-1.3-6.4-3.8-8.9l-2.6-2.6c-2.6-2.6-5.1-3.8-8.9-3.8
			c-3.8,0,0,5.1-2.6,7.7L273.1,136.5c-7.7,7.7-11.5,17.9-11.5,28.1c0,10.2,3.8,21.7,11.5,28.1l3.8,3.8L10.2,449.1
			C3.8,455.5,0,464.4,0,473.3c0,8.9,3.8,17.9,10.2,24.2l19.1,21.7c6.4,6.4,15.3,12.8,24.2,12.8c8.9,0,17.9-6.4,24.2-12.8
			l251.4-269.2L333,253.9z"/>
	</g>
</g>
</svg>
