<?xml version="1.0" encoding="utf-8"?>
<!-- Generator: Adobe Illustrator 17.1.0, SVG Export Plug-In . SVG Version: 6.00 Build 0)  -->
<!DOCTYPE svg PUBLIC "-//W3C//DTD SVG 1.1//EN" "http://www.w3.org/Graphics/SVG/1.1/DTD/svg11.dtd">
<svg version="1.1" id="Forma_1_1_" xmlns="http://www.w3.org/2000/svg" xmlns:xlink="http://www.w3.org/1999/xlink" x="0px" y="0px"
	 viewBox="0 0 612 612" enable-background="new 0 0 612 612" xml:space="preserve">
<g id="Forma_1">
	<g>
		<path fill-rule="evenodd" clip-rule="evenodd" fill="#FFFFFF" d="M306,0C137,0,0,137,0,306c0,169,137,306,306,306s306-137,306-306
			C612,137,475,0,306,0z M343.2,450.6c0,20.6-16.7,37.2-37.2,37.2c-20.6,0-37.2-16.7-37.2-37.2V313.3c-10.1-6.7-16.7-18.1-16.7-31.1
			c0-20.6,16.7-37.2,37.2-37.2H306c20.6,0,37.2,16.7,37.2,37.2V450.6z M306,224.2c-27.4,0-49.6-22.2-49.6-49.6
			c0-27.4,22.2-49.6,49.6-49.6c27.4,0,49.6,22.2,49.6,49.6S333.4,224.2,306,224.2z"/>
	</g>
</g>
</svg>
