<?xml version="1.0" encoding="utf-8"?>
<!-- Generator: Adobe Illustrator 17.1.0, SVG Export Plug-In . SVG Version: 6.00 Build 0)  -->
<!DOCTYPE svg PUBLIC "-//W3C//DTD SVG 1.1//EN" "http://www.w3.org/Graphics/SVG/1.1/DTD/svg11.dtd">
<svg version="1.1" id="Forma_1_1_" xmlns="http://www.w3.org/2000/svg" xmlns:xlink="http://www.w3.org/1999/xlink" x="0px" y="0px"
	 viewBox="0 0 551 511" enable-background="new 0 0 551 511" xml:space="preserve">
<g id="Forma_1">
	<g>
		<path fill-rule="evenodd" clip-rule="evenodd" fill="#FFFFFF" d="M513.1,94.8h-63V54.5c0-30-24.5-54.5-54.5-54.5H155.3
			c-30,0-54.5,24.5-54.5,54.5v40.4h-63C17.1,94.9,0,112,0,132.8v340.3C0,493.9,17.1,511,37.9,511H513c20.8,0,37.9-17.1,37.9-37.9
			V132.8C551,111.4,533.9,94.8,513.1,94.8z M101.5,485.9H80.7V119.3h20.8V485.9z M381.6,332.3c0,11-8.6,19.6-19,19.6h-37.3v37.3
			c0,11-8,19-19,19h-60.6c-11,0-19-8.6-19-19v-37.3h-37.3c-11,0-19-8.6-19-19.6v-60c0-11,8.6-19.6,19-19.6h37.3v-37.3
			c0-11,8.6-19.6,19-19.6h60.6c11,0,19,8.6,19,19.6v37.3h37.3c11,0,19,8.6,19,19.6V332.3z M417.6,94.9h-0.5v-0.1H134.5V54.5
			c0-12.2,9.2-21.4,21.4-21.4h240.3c12.2,0,21.4,9.2,21.4,21.4V94.9z M470.9,485.9h-20.8V119.3h20.8V485.9z"/>
	</g>
</g>
</svg>
