<?xml version="1.0" encoding="utf-8"?>
<!-- Generator: Adobe Illustrator 17.1.0, SVG Export Plug-In . SVG Version: 6.00 Build 0)  -->
<!DOCTYPE svg PUBLIC "-//W3C//DTD SVG 1.1//EN" "http://www.w3.org/Graphics/SVG/1.1/DTD/svg11.dtd">
<svg version="1.1" id="Forma_1_1_" xmlns="http://www.w3.org/2000/svg" xmlns:xlink="http://www.w3.org/1999/xlink" x="0px" y="0px"
	 viewBox="0 0 369 587" enable-background="new 0 0 369 587" xml:space="preserve">
<g id="Forma_1">
	<g>
		<path fill="#FFFFFF" d="M77.8,76.6h215.6V14c0-7.7-6.4-14-14-14H62.5c-5.1,0-10.2,2.6-12.8,7.7c-2.6,5.1-2.6,12.8,0,17.9
			L77.8,76.6z M51,160.8c-2.6,3.8-2.6,6.4,0,11.5c2.6,3.8,6.4,6.4,11.5,6.4h24.2C88,234.8,134,279.5,190.1,279.5
			c56.1,0,102.1-44.7,103.3-100.8v-63.8H77.8L51,160.8z M298.6,320.3L100.8,587h253.9c7.7,0,14-6.4,14-14V407.1
			C370,365,339.4,329.2,298.6,320.3z M88,317.7v1.3c-48.5,0-88,39.6-88,88v164.6c0,7.7,6.4,14,14,14h24.2l199-268H88z"/>
	</g>
</g>
</svg>
