<?xml version="1.0" encoding="utf-8"?>
<!-- Generator: Adobe Illustrator 17.1.0, SVG Export Plug-In . SVG Version: 6.00 Build 0)  -->
<!DOCTYPE svg PUBLIC "-//W3C//DTD SVG 1.1//EN" "http://www.w3.org/Graphics/SVG/1.1/DTD/svg11.dtd">
<svg version="1.1" id="Forma_1_1_" xmlns="http://www.w3.org/2000/svg" xmlns:xlink="http://www.w3.org/1999/xlink" x="0px" y="0px"
	 viewBox="0 0 336 326" enable-background="new 0 0 336 326" xml:space="preserve">
<g id="Forma_1">
	<g>
		<path fill="#FFFFFF" d="M71.2,81.4c20.6,0,37.3-18.1,37.3-40.4S91.8,0.6,71.2,0.6C50.6,0.6,33.9,18.7,33.9,41S50.6,81.4,71.2,81.4
			z M167.8,4.3H165c-3.5,0-6.4,3.2-6.4,7v307.1c0,3.9,2.9,7,6.4,7h2.7c3.5,0,6.4-3.2,6.4-7V11.3C174.2,7.4,171.3,4.3,167.8,4.3z
			 M261.5,81.6c20.6,0,37.3-18.3,37.3-40.8c0-22.5-16.7-40.8-37.3-40.8s-37.3,18.3-37.3,40.8C224.2,63.3,240.9,81.6,261.5,81.6z
			 M334.8,186.6L303,101.8c-1.8-4.3-3.4-10-10.9-10c-2.8,0-5.5,0-8.7,0h-38.9c-3.2,0-4.9,0-8.9,0c-7.5,0-11.3,5.3-13.5,10.1
			l-33,84.1c-3.1,7.1-0.5,15.6,5.9,19.1c6.4,3.5,14.1,0.5,17.3-6.5l2.5-5.6c0,0,0.8-1.5,0.5,0.2c-1.8,10.4-6.8,41.5-6.8,41.5
			c-1.2,6.5,2.8,11.8,8.8,11.8c0,0,10.8,0,14.4,0c1,0,0.8,0.8,0.8,0.8V310c0,10.5,6,16,13.3,16c7.4,0,13.3-5.5,13.3-16v-62.9
			c0,0,0-0.6,0.6-0.6c0.8,0,2.7,0,3.6,0c0.5,0,0.4,0.7,0.4,0.7V310c0,10.5,6,16,13.4,16c7.4,0,13.3-5.5,13.3-16v-62.5c0,0-0.1-1,1-1
			c3.9,0,15.5,0,15.5,0c6.1,0,10.1-5.3,9-11.8c0,0-5-33.4-6.3-42.5c-0.4-2.6,3.6,6.7,3.6,6.7c3,7.1,8.9,10.1,15.3,6.8
			c4.4-2.3,7.1-7,7.4-12v-1.7C335.9,190.1,335.5,188.3,334.8,186.6z M114.9,101.2c-2.2-6.5-8.2-10.2-14.3-10.2c-3,0-3.3,0.1-5.1,0.1
			H46.3c-1.8,0-3.4,0-5.1,0c-6.9,0-12.1,3.6-14.3,10.1L0.7,188.5c-0.3,0.9-0.5,1.9-0.7,2.8v4.3c0.7,4.9,3.7,9.3,8.2,11.2
			c6.7,2.8,14.1-1,16.6-8.3l7-20.6c0,0,0.5-2.1,0.5,7v121.2c0,10.6,7.8,19.2,17.4,19.2S67,316.8,67,306.2V227c0,0-0.1-0.7,0.6-0.7
			c1.6,0,4.9,0,6.5,0c0.6,0,0.6,0.7,0.6,0.7v79.2c0,10.6,7.8,19.2,17.4,19.2s17.4-8.6,17.4-19.2V185c0-9.2,0.7-6.3,0.7-6.3l6.7,19.9
			c2.5,7.4,9.9,11.1,16.6,8.3c6.7-2.8,10-11,7.5-18.3L114.9,101.2z"/>
	</g>
</g>
</svg>
