<?xml version="1.0" encoding="utf-8"?>
<!-- Generator: Adobe Illustrator 17.1.0, SVG Export Plug-In . SVG Version: 6.00 Build 0)  -->
<!DOCTYPE svg PUBLIC "-//W3C//DTD SVG 1.1//EN" "http://www.w3.org/Graphics/SVG/1.1/DTD/svg11.dtd">
<svg version="1.1" id="Forma_1_1_" xmlns="http://www.w3.org/2000/svg" xmlns:xlink="http://www.w3.org/1999/xlink" x="0px" y="0px"
	 viewBox="0 0 540 537" enable-background="new 0 0 540 537" xml:space="preserve">
<g id="Forma_1">
	<g>
		<path fill="#FFFFFF" d="M352.6,101.8c23,15.3,52.7,6.6,66.2-19.5c13.6-26.1,5.9-59.7-17.2-75c-6.4-4.2-13.3-6.6-20.2-7.3h-8.6
			c-15.1,1.5-29.3,10.9-37.5,26.8C321.9,52.9,329.6,86.5,352.6,101.8z M431.7,290.6c-2.7,0-5.3,0.2-7.9,0.5l-15.8-89.1l5.2-2.2
			c11.7-5,17.7-19.7,13.3-33c-4.4-13.3-17.5-20-29.1-15l-56.9,24.1l-2.5-23.5c6.9-16.4,6.1-37-5.2-51.6c-23.3-30-51.7-15.6-60.6-7.4
			L154.6,201l0,0c-3.6,3.6-6.7,8.1-8.6,13.5c-2.4,6.7-2.9,13.8-1.7,20.4c-9.3,0.8-16.8,9.4-16.8,20.2c0,11.3,8.1,20.4,18,20.5
			l-7.5,19.8c-9.5-3.1-19.4-4.8-29.7-4.8C48.6,290.6,0,345.6,0,413.3C0,480.9,48.6,536,108.4,536c59.7,0,108.3-55.1,108.3-122.7
			c0-45.1-21.6-84.4-53.7-105.8l12-31.9h19.5l66.2,30.4l-35.4,65.6c-9.1,16.9-4.4,39,10.6,49.4c5.2,3.6,10.8,5.3,16.5,5.3
			c10.7,0,21.1-6.1,27.1-17.2l32.2-59.8l20.9,14.3c-6,15.2-9.4,32-9.4,49.7c0,67.7,48.6,122.7,108.3,122.7
			c59.7,0,108.3-55.1,108.3-122.7C540,345.6,491.4,290.6,431.7,290.6z M108.4,505.2c-44.8,0-81.2-41.2-81.2-91.9
			s36.4-91.9,81.2-91.9c6.5,0,12.8,1.1,18.9,2.8l-22.5,59.6c-12.9,2-22.9,14.4-22.9,29.6c0,16.6,11.9,30,26.5,30
			c9.6,0,18-5.9,22.6-14.6h57.2C181.6,472,148.5,505.2,108.4,505.2z M188.1,397.9H131c-0.4-0.7-0.8-1.5-1.2-2.2l22.5-59.6
			C171,349.9,184.3,372,188.1,397.9z M402.6,327.7l9.7,54.3l-41.7-28.5C379.2,342.2,390,333.2,402.6,327.7z M325.9,323l8.4-15.6
			c4.8-9,6-19.9,3-30c-2.9-10-9.6-18.1-18.2-22l-57.9-26.6l35.6-32.7l2,18.3c0.8,7.8,4.8,14.7,10.7,18.8c3.6,2.5,7.7,3.7,11.7,3.7
			c2.7,0,5.4-0.5,7.9-1.6l52.9-22.4l15,84.2c-20.1,7.7-37.5,21.8-50.3,40.2L325.9,323z M431.7,505.2c-44.8,0-81.2-41.2-81.2-91.9
			c0-11.9,2.2-23.1,5.8-33.6l48.9,33.4c0,0,0,0.1,0,0.1c0,16.6,11.9,30,26.5,30c14.6,0,26.5-13.4,26.5-30c0-13-7.4-24-17.6-28.2
			l-11.3-63.5c0.8,0,1.6-0.3,2.4-0.3c44.8,0,81.2,41.2,81.2,91.9C512.8,464,476.4,505.2,431.7,505.2z"/>
	</g>
</g>
</svg>
