<?xml version="1.0" encoding="utf-8"?>
<!-- Generator: Adobe Illustrator 17.1.0, SVG Export Plug-In . SVG Version: 6.00 Build 0)  -->
<!DOCTYPE svg PUBLIC "-//W3C//DTD SVG 1.1//EN" "http://www.w3.org/Graphics/SVG/1.1/DTD/svg11.dtd">
<svg version="1.1" id="Forma_1_1_" xmlns="http://www.w3.org/2000/svg" xmlns:xlink="http://www.w3.org/1999/xlink" x="0px" y="0px"
	 viewBox="0 0 383 612" enable-background="new 0 0 383 612" xml:space="preserve">
<g id="Forma_1">
	<g>
		<path fill="#FFFFFF" d="M228.7,0c0,0-18,1.3-27.8,42.4c-5.3,22.2-7,52.9-9.3,85.2c-0.9,12.6-1.8,25.6-2.9,38.8
			c-12.3,6.4-24.6,12.8-36.9,19.3c-11.3,5.9-22.7,11.8-34,17.8c3.2-3.4,6.2-7.2,8.7-11.4c8-13.2,11.1-29.1,9-44.4
			c14-10.8,7.3-22.6,2.1-33c-18.4-36.2-65.8-33.8-65.8-33.8C8.1,83.9-2,116.4,0.4,142.3l0.2,3.6c0.1,0.8,1.4,19.5,10.4,38.5
			c10.2,21.5,26,34.6,46.2,38.6c-11.6,8.8-19.5,22-21.6,36.5c-1.1,8.2,0.1,16,1.5,24c1.6,9.4,3.2,18.7,4.9,28.1
			c4.1,23.4,8.1,46.7,12.2,70.1c0.8,4.8,1.7,9.6,2.5,14.4c1.4,8.3,4.8,16.7,9.7,23.5c1.4,2,2.8,4,4.3,5.9
			c13.2,18.4,26.3,36.7,39.5,55.1c1.8,2.5,3.5,4.9,5.3,7.4c0.7,0.9,0.7,1.6,0.9,2.8c1.4,9.3,2.9,18.5,4.3,27.8
			c1.8,11.9,3.7,23.8,5.5,35.7c1.2,7.8,1.7,16.5,6,23.3c9.7,15.6,32.1,18.1,44.9,4.9c5.7-5.9,8.7-14,8.1-22.2
			c-0.1-1.9-0.3-3.8-0.4-5.7c-1.7-22.5-3.3-45-5-67.5c-0.5-7.2-0.2-15.5-2.8-22.3c-1.5-3.8-4-7.3-6.2-10.8
			c-3.2-4.9-19.7-33.3-19.7-33.3s44.9-11,63.1-14.7c-0.1,0-0.1,0,0,0c-0.4,0-0.8,0.1-1.2,0.1c0.5-0.1,1.1-0.1,1.6-0.2
			c-0.5,0-1,0-1.5,0c4.4-0.4,9.4,1.6,13.5,2.9c1.7,0.5,3.3,1.1,5,1.7l-16.3,85.9l11,80.5v35h157V0H228.7z M35.5,99.6
			c0.1-0.4,0.5-0.8,1-1.1c6.6-3.4,13.5-5.6,20.8-6.8c1.1-0.2,2.5,0.2,3,0.8c2.6,3,3.8,4.5,5.9,7.7c0.2,0.4,0.2,0.8,0,1.1
			c-0.2,0.2-0.5,0.4-0.9,0.5c-0.1,0-0.2,0.1-0.4,0.1c-6,1.1-11.6,2.8-17,5.6c-0.4,0.2-1,0.4-1.6,0.3c-0.6,0-1.1-0.2-1.4-0.5
			c-3.3-3-5.2-4.4-9.2-6.8C35.5,100.4,35.4,100,35.5,99.6z M13,128.2c1.4-7.7,5.4-14,10.3-19.6c0.4-0.4,0.9-0.7,1.5-0.9
			c0.6-0.2,1.1-0.2,1.6,0c3.9,1.7,7.7,3.8,11.1,6.3c0.6,0.4,0.6,1.2,0.1,1.8c-3.5,4.2-6.5,8.7-7.4,14.4c0,0.1-0.1,0.2-0.1,0.3
			c-0.1,0.3-0.4,0.6-0.7,0.8c-0.4,0.3-0.9,0.3-1.3,0.2c-4.5-1.4-9.2-2-14-1.9C13.3,129.6,12.9,129,13,128.2z M23.7,178.8
			c-1.6-3.3-2.9-6.5-3.9-9.7l14.7-1.5c4.4,11.5,11.7,27.7,22.5,41.2C42.6,204.9,31.4,194.9,23.7,178.8z M114.6,184.8
			c-8.2,13.6-22.3,22.9-37,25.1c-13.8-11.5-23.2-30.2-28.7-43.9c0,0,45.2-4.1,55.5-5.7c16-2.5,17.9-5.2,17.9-5.2
			C122.5,165.4,120,175.9,114.6,184.8z M206.9,128.7c3-56,11.8-91.8,11.8-91.8l20.3,26.7l-14.3,84.3c-4.3,1.7-8.4,4.2-12.6,6.4
			c-2.5,1.3-4.9,2.6-7.4,3.9C205.5,148.1,206.3,138.3,206.9,128.7z M198.4,218c3.9-2.3,7.8-4.6,11.6-7c5.2-3.1,10.3-6.2,15.5-9.3
			l7.2,18.8c-12.4,5.6-24.9,11.2-37.3,16.7C196.5,231,197.5,224.5,198.4,218z M181.6,228.1c-0.7,4.1-1.4,8.2-2.1,12.2
			c-0.1,0-0.1,0-0.2,0c-5.1-0.6-10.1-1.1-15.2-1.7C169.9,235.1,175.7,231.6,181.6,228.1z M151.2,295.1c-0.3-1.5-0.5-3-0.8-4.5
			c5.1,0.3,10.3,0.6,15.4,0.8c-3.2,8.6-6.9,16.8-11.1,24.3C153.6,308.8,152.4,301.9,151.2,295.1z M230.5,346.7
			c-7-1.9-14-2.8-21.2-2.7c-6.9,0.2-14,1.7-20.8,2.7c-9.2,1.4-18.4,3.1-27.5,4.7c-0.8-4.5-1.6-9.1-2.4-13.6
			c9.6-13.1,17.1-28.5,23.1-45.6c2.4,0.1,4.8,0.3,7.2,0.4c5.4,0.3,10.1-0.8,14.8-3.3c12.3-6.3,24.5-12.7,36.8-19l5.9,81.8
			C241.2,350,235.9,348.2,230.5,346.7z"/>
	</g>
</g>
</svg>
