<?xml version="1.0" encoding="utf-8"?>
<!-- Generator: Adobe Illustrator 17.1.0, SVG Export Plug-In . SVG Version: 6.00 Build 0)  -->
<!DOCTYPE svg PUBLIC "-//W3C//DTD SVG 1.1//EN" "http://www.w3.org/Graphics/SVG/1.1/DTD/svg11.dtd">
<svg version="1.1" id="Forma_1_1_" xmlns="http://www.w3.org/2000/svg" xmlns:xlink="http://www.w3.org/1999/xlink" x="0px" y="0px"
	 viewBox="0 0 520 612" enable-background="new 0 0 520 612" xml:space="preserve">
<g id="Forma_1">
	<g>
		<path fill="#FFFFFF" d="M378.1,548.7c-6.1-3.9-14.3-2.1-18.2,4c-8.4,13.3-36.8,6-54.9,1.1c-0.4-0.1-263.7-73.4-263.7-73.4
			c-7-2-14.3,2.1-16.2,9.2c-2,7,2.2,14.3,9.2,16.2l46.9,13.1c-2.4,2.8-4.3,6.2-5.3,10c-3.9,14,4.3,28.5,18.3,32.4
			c14,3.9,28.6-4.3,32.5-18.3c1.1-3.8,1.2-7.7,0.6-11.3l133,37c-2.4,2.8-4.3,6.2-5.3,10c-3.9,14,4.3,28.5,18.3,32.4
			c1.7,0.5,3.5,0.8,5.2,0.9h3.7c10.8-0.7,20.5-8.2,23.6-19.2c1-3.7,1.2-7.3,0.7-10.9c0.1,0,0.2,0,0.2,0.1
			c19.4,5.4,58.3,12,75.6-15.1C386.1,560.8,384.2,552.6,378.1,548.7z M519.7,109.3c-1.3-14.4-14.1-24.9-28.4-23.6L374.9,96.4
			c-6.6,0.8-26.2,8.4-43.4,14.3c-2.5,3.7-5.3,7.1-8.4,10.3c-16.2,16.2-39.9,23.4-62.5,19.1l-0.1,0c-9.1-1.8-17.8-5.4-25.5-10.5
			c-4-2.7-7.7-5.8-11-9.3c-38.5-3.4-83.1-6.9-112.5-2.1L14,151.1c-7.6,2.6-12.9,9.2-14,16.9v5.9c0.1,0.5,0.1,1,0.2,1.4
			c2.4,11.3,13.6,18.5,24.9,16.1l94.7-20.2l72.9,9.8c0,0-28.6,106.9-28.6,106.9c-12.4,50.4,31.2,87.1,31.2,87.1l-54,85.5
			c-7.2,11.5-4.5,26.9,6.7,35c11.6,8.5,28,6,36.5-5.6l73-99.5c4-5.5,6-12.4,5.5-19.1l37.2,6.9l-65.4,102.1
			c-7.4,11.6-4.6,27.2,6.8,35.3c11.7,8.4,28.1,5.7,36.5-6l97.3-135.9c2.2-3.1,3.9-6.7,4.8-10.6c3.7-16.1-6.2-32.1-22.3-35.9
			l-1.4-0.3l-62.3-14.5l29.4-109.9c1.4-5.2,2.1-10.4,2.2-15.5c0.7-0.3,1.4-0.7,2.1-1l59.8-32.8l109.8-15.6
			C511.1,135.6,521,123.2,519.7,109.3z M236.8,117.8c7.1,4.8,15.2,8.1,23.6,9.7l0.1,0c20.8,4,42.7-2.7,57.7-17.6
			c15.2-15.2,21.9-37.6,17.5-58.7c-4.3-20.5-18.8-38-38.2-46.1c-19.8-8.2-42.9-5.9-60.7,6c-17.8,12-28.6,32.5-28.4,53.9
			C208.6,86.2,219.4,106.2,236.8,117.8z"/>
	</g>
</g>
</svg>
