<?xml version="1.0" encoding="utf-8"?>
<!-- Generator: Adobe Illustrator 17.1.0, SVG Export Plug-In . SVG Version: 6.00 Build 0)  -->
<!DOCTYPE svg PUBLIC "-//W3C//DTD SVG 1.1//EN" "http://www.w3.org/Graphics/SVG/1.1/DTD/svg11.dtd">
<svg version="1.1" id="Forma_1_1_" xmlns="http://www.w3.org/2000/svg" xmlns:xlink="http://www.w3.org/1999/xlink" x="0px" y="0px"
	 viewBox="0 0 466 612" enable-background="new 0 0 466 612" xml:space="preserve">
<g id="Forma_1">
	<g>
		<path fill="#FFFFFF" d="M449.5,544.7l0.2-298.2c3.7-1.4,7-3.8,9.6-7.2c7.7-9.9,5.8-24.1-4-31.7L402,166.3c-0.7-0.5-1.4-1-2.2-1.4
			l-1.7-0.9l-74.3-38c-0.6-0.3-1.2-0.5-1.8-0.8c-18.5-9.6-102.2-9.3-119.4,2.2l-93.9,59.3c-11.2,7.1-14.8,21.8-8,33.3l38.4,64.4
			c2.1,3.5,5,6.2,8.4,8.1L19.3,536.1c-9.2-3.9-16.9-4.8-18.6-1.7c-1.7,3,3.3,9.1,11.5,14.7l-0.2,0.3c-1.9,3.5-0.6,7.9,2.9,9.8
			c3.5,1.9,7.9,0.6,9.8-2.9l0.2-0.3c9.2,3.9,16.9,4.8,18.6,1.8c1.7-3-3.3-9.1-11.5-14.7l130.4-247.9c2.1-0.4,4.1-1,6.1-2
			c11-5.4,15.7-18.6,10.6-29.7l2.9-5.5c1.9-3.5,0.6-7.9-2.9-9.8c-2.4-1.3-5.3-1.1-7.4,0.3l-14.8-30.1l37.3-20.9v129.7l-41.7,179.4
			c-19.2-14.1-34-24.9-35.7-26.2c-5.5-4-13.2-2.8-17.2,2.7c-4,5.5-2.8,13.2,2.7,17.2c1.2,0.9,121.6,89.1,132.4,97.6
			c10,7.8,23.4,14.3,36.3,14.3h0c8,0,15.8-2.5,22.5-8.6c5-4.6,5.4-12.4,0.7-17.4c-4.6-5-12.4-5.3-17.4-0.7
			c-6.1,5.6-19.7-1.2-26.9-6.9c-4.7-3.7-28.2-21-54.2-40.2c3.7-3.2,6.6-7.5,8.1-12.6l55-182.7l43.1,75.2l-11.9,84.3
			c-16.4-12-28.5-20.9-30.1-22c-5.5-4-13.2-2.8-17.2,2.7c-4,5.5-2.8,13.2,2.7,17.2c1.2,0.9,121.6,89.1,132.4,97.6
			c10,7.8,23.4,14.3,36.3,14.3h0c8,0,15.8-2.5,22.5-8.6c5-4.6,5.4-12.4,0.7-17.4c-4.6-5-12.4-5.3-17.4-0.7
			c-6.1,5.6-19.7-1.2-26.9-6.9c-4.9-3.8-30.2-22.5-57.5-42.6c3.1-3.4,5.3-7.7,6.3-12.5l22.3-106.1c1.2-5.8,0.6-12.1-2.2-17.8
			l-0.9-1.9l-41.3-84.9V186.4l55.4,23.6l54,34.5c1.9,1.2,3.9,2.1,6,2.7L435,544.7c-9.9,1-17.2,3.9-17.2,7.4c0,3.5,7.2,6.4,17.1,7.4
			v0.3c0,4,3.2,7.2,7.2,7.2c4,0,7.3-3.2,7.3-7.2l0-0.3c8.2-0.8,14.5-2.9,16.5-5.6v-3.6C464,547.6,457.7,545.5,449.5,544.7z
			 M257.4,113.9c31.3,3.7,59.7-18.7,63.3-50c3.7-31.3-18.7-59.6-50.1-63.2c-31.3-3.7-59.7,18.7-63.3,50
			C203.6,81.9,226,110.2,257.4,113.9z"/>
	</g>
</g>
</svg>
