<?xml version="1.0" encoding="utf-8"?>
<!-- Generator: Adobe Illustrator 17.1.0, SVG Export Plug-In . SVG Version: 6.00 Build 0)  -->
<!DOCTYPE svg PUBLIC "-//W3C//DTD SVG 1.1//EN" "http://www.w3.org/Graphics/SVG/1.1/DTD/svg11.dtd">
<svg version="1.1" id="Forma_1_1_" xmlns="http://www.w3.org/2000/svg" xmlns:xlink="http://www.w3.org/1999/xlink" x="0px" y="0px"
	 viewBox="0 0 24 14" enable-background="new 0 0 24 14" xml:space="preserve">
<g id="Forma_1">
	<g>
		<path fill="#FFFFFF" d="M18.4,10c-3,0-5.6,2-10.5,2c-5,0-6.9-2-6.9-2s2.1,3.8,7.4,4h0.5c4.7-0.1,7.5-2,10.8-2
			c2.2,0,3.6,0.6,4.4,1.1v-0.5C23,11.5,21.1,10,18.4,10z M19.9,7.1c1.7,0,3-1.3,3-3s-1.3-3-3-3c-1.7,0-3,1.3-3,3S18.2,7.1,19.9,7.1z
			 M5.3,5l5.2-2.6l0.2,0.3l1.1,2.9c-0.1,0-5.8,3.4-7,4.1c0.8,0.2,1.8,0.3,3,0.3c3.9,0,6.4-1.3,8.8-1.8l-4.8-7.6l0,0l0,0
			c-0.3-0.4-0.8-0.6-1.3-0.4l-6,3C4,3.4,3.8,4,4,4.5C4.3,5,4.9,5.2,5.3,5z"/>
	</g>
</g>
</svg>
